<svg width="187" height="125" viewBox="0 0 187 125" fill="none" xmlns="http://www.w3.org/2000/svg">
<path d="M19.6918 36.11L63.2209 10.9784L106.75 36.1099V86.3731L63.2209 111.505L19.6918 86.373V36.11Z" stroke="#EEEEF7" stroke-width="0.798808"/>
<path d="M34.9106 44.8968L63.2203 28.5521L91.5301 44.8968V77.5861L63.2203 93.9308L34.9106 77.5861V44.8968Z" stroke="#EEEEF7" stroke-width="0.798808"/>
<path d="M40.2201 48.0673L63.3657 29.0062L96.0035 41.8282L98.3405 80.9733L63.3585 101.768L37.6894 74.9322L40.2201 48.0673Z" stroke="#0088F0" stroke-width="1.59762"/>
<path d="M29.8791 42.2267L62.9659 23.952L81.2897 51.2428L93.3526 78.8152H63.3303L42.3678 72.9591L29.8791 42.2267Z" stroke="#EF2A82" stroke-width="1.59762"/>
<path d="M53.5889 55.6807L63.2204 50.1199L72.8519 55.6807V66.8022L63.2204 72.363L53.5889 66.8022V55.6807Z" stroke="#EEEEF7" stroke-width="0.798808"/>
<path d="M159.288 34.1958H160.303C160.801 34.1958 161.211 34.1138 161.534 33.9497C161.862 33.7805 162.105 33.5524 162.264 33.2654C162.428 32.9732 162.51 32.6451 162.51 32.2811C162.51 31.8505 162.438 31.4891 162.295 31.1969C162.151 30.9047 161.936 30.6843 161.649 30.5356C161.362 30.387 160.998 30.3126 160.557 30.3126C160.157 30.3126 159.803 30.3921 159.496 30.551C159.193 30.7048 158.955 30.9252 158.781 31.2123C158.612 31.4994 158.527 31.8377 158.527 32.2273H157.105C157.105 31.6583 157.248 31.1405 157.535 30.674C157.822 30.2075 158.225 29.8359 158.742 29.5591C159.265 29.2822 159.87 29.1438 160.557 29.1438C161.234 29.1438 161.826 29.2643 162.333 29.5052C162.841 29.741 163.236 30.0948 163.517 30.5664C163.799 31.0329 163.94 31.6147 163.94 32.3119C163.94 32.5938 163.874 32.8963 163.74 33.2192C163.612 33.537 163.41 33.8344 163.133 34.1112C162.861 34.388 162.508 34.6161 162.072 34.7956C161.636 34.9698 161.113 35.057 160.503 35.057H159.288V34.1958ZM159.288 35.3646V34.511H160.503C161.216 34.511 161.805 34.5956 162.272 34.7648C162.738 34.934 163.105 35.1595 163.371 35.4415C163.643 35.7234 163.833 36.0335 163.94 36.3719C164.053 36.7051 164.11 37.0383 164.11 37.3715C164.11 37.8944 164.02 38.3583 163.84 38.7633C163.666 39.1683 163.418 39.5117 163.095 39.7937C162.777 40.0756 162.403 40.2884 161.972 40.4319C161.541 40.5754 161.072 40.6472 160.565 40.6472C160.078 40.6472 159.619 40.578 159.188 40.4396C158.763 40.3012 158.386 40.1012 158.058 39.8398C157.73 39.5732 157.474 39.2477 157.289 38.8633C157.105 38.4737 157.012 38.0302 157.012 37.533H158.435C158.435 37.9226 158.519 38.2635 158.689 38.5557C158.863 38.8479 159.109 39.076 159.427 39.24C159.75 39.3989 160.129 39.4784 160.565 39.4784C161 39.4784 161.375 39.4041 161.687 39.2554C162.005 39.1016 162.249 38.8709 162.418 38.5634C162.592 38.2558 162.679 37.8688 162.679 37.4023C162.679 36.9358 162.582 36.5539 162.387 36.2565C162.192 35.9541 161.916 35.7311 161.557 35.5876C161.203 35.4389 160.785 35.3646 160.303 35.3646H159.288ZM173.637 36.7256V37.8944H165.547V37.0562L170.561 29.2976H171.722L170.476 31.5429L167.162 36.7256H173.637ZM172.076 29.2976V40.4934H170.653V29.2976H172.076ZM174.806 32.0427V31.4507C174.806 31.0252 174.898 30.6381 175.082 30.2896C175.267 29.941 175.531 29.6616 175.874 29.4514C176.218 29.2412 176.625 29.1361 177.097 29.1361C177.579 29.1361 177.989 29.2412 178.327 29.4514C178.671 29.6616 178.935 29.941 179.119 30.2896C179.304 30.6381 179.396 31.0252 179.396 31.4507V32.0427C179.396 32.458 179.304 32.8399 179.119 33.1885C178.94 33.537 178.678 33.8164 178.335 34.0266C177.997 34.2368 177.589 34.3419 177.112 34.3419C176.636 34.3419 176.223 34.2368 175.874 34.0266C175.531 33.8164 175.267 33.537 175.082 33.1885C174.898 32.8399 174.806 32.458 174.806 32.0427ZM175.874 31.4507V32.0427C175.874 32.2785 175.918 32.5015 176.005 32.7117C176.097 32.9219 176.236 33.0936 176.42 33.2269C176.605 33.3551 176.836 33.4191 177.112 33.4191C177.389 33.4191 177.617 33.3551 177.797 33.2269C177.976 33.0936 178.109 32.9219 178.197 32.7117C178.284 32.5015 178.327 32.2785 178.327 32.0427V31.4507C178.327 31.2097 178.281 30.9842 178.189 30.774C178.102 30.5587 177.966 30.387 177.781 30.2588C177.602 30.1255 177.374 30.0589 177.097 30.0589C176.825 30.0589 176.597 30.1255 176.413 30.2588C176.233 30.387 176.097 30.5587 176.005 30.774C175.918 30.9842 175.874 31.2097 175.874 31.4507ZM180.257 38.3481V37.7483C180.257 37.3279 180.35 36.9435 180.534 36.5949C180.719 36.2463 180.983 35.9669 181.326 35.7567C181.67 35.5466 182.077 35.4415 182.549 35.4415C183.031 35.4415 183.441 35.5466 183.779 35.7567C184.123 35.9669 184.387 36.2463 184.571 36.5949C184.756 36.9435 184.848 37.3279 184.848 37.7483V38.3481C184.848 38.7684 184.756 39.1529 184.571 39.5015C184.392 39.8501 184.13 40.1294 183.787 40.3396C183.448 40.5498 183.041 40.6549 182.564 40.6549C182.087 40.6549 181.677 40.5498 181.334 40.3396C180.99 40.1294 180.724 39.8501 180.534 39.5015C180.35 39.1529 180.257 38.7684 180.257 38.3481ZM181.326 37.7483V38.3481C181.326 38.5839 181.37 38.8094 181.457 39.0247C181.549 39.2349 181.688 39.4066 181.872 39.5399C182.057 39.6681 182.287 39.7322 182.564 39.7322C182.841 39.7322 183.069 39.6681 183.249 39.5399C183.433 39.4066 183.569 39.2349 183.656 39.0247C183.743 38.8146 183.787 38.589 183.787 38.3481V37.7483C183.787 37.5074 183.741 37.2818 183.648 37.0716C183.561 36.8614 183.425 36.6923 183.241 36.5641C183.061 36.4308 182.831 36.3642 182.549 36.3642C182.277 36.3642 182.049 36.4308 181.864 36.5641C181.685 36.6923 181.549 36.8614 181.457 37.0716C181.37 37.2818 181.326 37.5074 181.326 37.7483ZM182.902 30.8893L177.435 39.6399L176.636 39.1324L182.103 30.3818L182.902 30.8893Z" fill="#EF2A82"/>
<path d="M156.605 51.4084V51.3276C156.605 51.0538 156.644 50.7999 156.724 50.5659C156.804 50.3295 156.918 50.1248 157.068 49.9516C157.218 49.7761 157.399 49.6403 157.612 49.5444C157.825 49.4461 158.064 49.3969 158.328 49.3969C158.595 49.3969 158.835 49.4461 159.048 49.5444C159.263 49.6403 159.446 49.7761 159.596 49.9516C159.748 50.1248 159.864 50.3295 159.943 50.5659C160.023 50.7999 160.062 51.0538 160.062 51.3276V51.4084C160.062 51.6822 160.023 51.9361 159.943 52.1701C159.864 52.4042 159.748 52.6089 159.596 52.7845C159.446 52.9576 159.264 53.0934 159.051 53.1917C158.841 53.2876 158.602 53.3356 158.335 53.3356C158.069 53.3356 157.829 53.2876 157.616 53.1917C157.403 53.0934 157.22 52.9576 157.068 52.7845C156.918 52.6089 156.804 52.4042 156.724 52.1701C156.644 51.9361 156.605 51.6822 156.605 51.4084ZM157.254 51.3276V51.4084C157.254 51.5979 157.276 51.777 157.321 51.9455C157.365 52.1116 157.432 52.2591 157.521 52.3878C157.612 52.5165 157.726 52.6183 157.861 52.6932C157.997 52.7657 158.155 52.802 158.335 52.802C158.513 52.802 158.669 52.7657 158.802 52.6932C158.938 52.6183 159.05 52.5165 159.139 52.3878C159.228 52.2591 159.295 52.1116 159.339 51.9455C159.386 51.777 159.409 51.5979 159.409 51.4084V51.3276C159.409 51.1404 159.386 50.9637 159.339 50.7976C159.295 50.6291 159.227 50.4805 159.136 50.3518C159.047 50.2207 158.934 50.1177 158.799 50.0428C158.665 49.968 158.508 49.9305 158.328 49.9305C158.15 49.9305 157.994 49.968 157.858 50.0428C157.725 50.1177 157.612 50.2207 157.521 50.3518C157.432 50.4805 157.365 50.6291 157.321 50.7976C157.276 50.9637 157.254 51.1404 157.254 51.3276ZM161.526 50.1973V54.7257H160.873V49.4671H161.47L161.526 50.1973ZM164.085 51.3347V51.4084C164.085 51.6845 164.053 51.9408 163.987 52.1772C163.922 52.4112 163.826 52.6148 163.699 52.788C163.575 52.9611 163.422 53.0957 163.239 53.1917C163.057 53.2876 162.847 53.3356 162.611 53.3356C162.37 53.3356 162.157 53.2958 161.972 53.2162C161.787 53.1367 161.63 53.0208 161.502 52.8687C161.373 52.7166 161.27 52.5341 161.193 52.3211C161.118 52.1081 161.066 51.8682 161.038 51.6015V51.2083C161.066 50.9275 161.119 50.6759 161.196 50.4536C161.274 50.2312 161.375 50.0417 161.502 49.8849C161.63 49.7257 161.786 49.6052 161.969 49.5233C162.151 49.4391 162.362 49.3969 162.6 49.3969C162.839 49.3969 163.051 49.4437 163.236 49.5374C163.421 49.6286 163.576 49.7597 163.703 49.9305C163.829 50.1014 163.924 50.3061 163.987 50.5448C164.053 50.7812 164.085 51.0445 164.085 51.3347ZM163.432 51.4084V51.3347C163.432 51.1451 163.413 50.9672 163.373 50.8011C163.333 50.6326 163.271 50.4852 163.187 50.3588C163.105 50.2301 162.999 50.1294 162.871 50.0569C162.742 49.982 162.589 49.9446 162.411 49.9446C162.247 49.9446 162.104 49.9726 161.983 50.0288C161.863 50.085 161.761 50.161 161.677 50.257C161.593 50.3506 161.524 50.4582 161.47 50.5799C161.419 50.6993 161.38 50.8233 161.354 50.952V51.8612C161.401 52.025 161.467 52.1795 161.551 52.3246C161.635 52.4674 161.747 52.5832 161.888 52.6721C162.028 52.7587 162.205 52.802 162.418 52.802C162.593 52.802 162.744 52.7657 162.871 52.6932C162.999 52.6183 163.105 52.5165 163.187 52.3878C163.271 52.2591 163.333 52.1116 163.373 51.9455C163.413 51.777 163.432 51.5979 163.432 51.4084ZM166.504 49.4671V49.9656H164.45V49.4671H166.504ZM165.145 48.5439H165.795V52.3246C165.795 52.4533 165.815 52.5504 165.855 52.616C165.894 52.6815 165.946 52.7248 166.009 52.7458C166.072 52.7669 166.14 52.7774 166.213 52.7774C166.266 52.7774 166.323 52.7728 166.381 52.7634C166.442 52.7517 166.488 52.7423 166.518 52.7353L166.522 53.2654C166.47 53.2818 166.402 53.297 166.318 53.311C166.236 53.3274 166.137 53.3356 166.02 53.3356C165.86 53.3356 165.714 53.304 165.581 53.2408C165.447 53.1776 165.341 53.0723 165.261 52.9249C165.184 52.7751 165.145 52.5738 165.145 52.3211V48.5439ZM167.971 49.4671V53.2654H167.318V49.4671H167.971ZM167.269 48.4597C167.269 48.3544 167.301 48.2654 167.364 48.1929C167.43 48.1203 167.526 48.0841 167.652 48.0841C167.776 48.0841 167.871 48.1203 167.936 48.1929C168.004 48.2654 168.038 48.3544 168.038 48.4597C168.038 48.5603 168.004 48.6469 167.936 48.7194C167.871 48.7896 167.776 48.8247 167.652 48.8247C167.526 48.8247 167.43 48.7896 167.364 48.7194C167.301 48.6469 167.269 48.5603 167.269 48.4597ZM168.842 51.4084V51.3276C168.842 51.0538 168.882 50.7999 168.961 50.5659C169.041 50.3295 169.155 50.1248 169.305 49.9516C169.455 49.7761 169.636 49.6403 169.849 49.5444C170.062 49.4461 170.301 49.3969 170.565 49.3969C170.832 49.3969 171.072 49.4461 171.285 49.5444C171.5 49.6403 171.683 49.7761 171.833 49.9516C171.985 50.1248 172.101 50.3295 172.18 50.5659C172.26 50.7999 172.3 51.0538 172.3 51.3276V51.4084C172.3 51.6822 172.26 51.9361 172.18 52.1701C172.101 52.4042 171.985 52.6089 171.833 52.7845C171.683 52.9576 171.502 53.0934 171.289 53.1917C171.078 53.2876 170.839 53.3356 170.573 53.3356C170.306 53.3356 170.066 53.2876 169.853 53.1917C169.64 53.0934 169.457 52.9576 169.305 52.7845C169.155 52.6089 169.041 52.4042 168.961 52.1701C168.882 51.9361 168.842 51.6822 168.842 51.4084ZM169.491 51.3276V51.4084C169.491 51.5979 169.514 51.777 169.558 51.9455C169.602 52.1116 169.669 52.2591 169.758 52.3878C169.849 52.5165 169.963 52.6183 170.099 52.6932C170.234 52.7657 170.392 52.802 170.573 52.802C170.75 52.802 170.906 52.7657 171.039 52.6932C171.175 52.6183 171.287 52.5165 171.376 52.3878C171.465 52.2591 171.532 52.1116 171.576 51.9455C171.623 51.777 171.647 51.5979 171.647 51.4084V51.3276C171.647 51.1404 171.623 50.9637 171.576 50.7976C171.532 50.6291 171.464 50.4805 171.373 50.3518C171.284 50.2207 171.172 50.1177 171.036 50.0428C170.902 49.968 170.746 49.9305 170.565 49.9305C170.388 49.9305 170.231 49.968 170.095 50.0428C169.962 50.1177 169.849 50.2207 169.758 50.3518C169.669 50.4805 169.602 50.6291 169.558 50.7976C169.514 50.9637 169.491 51.1404 169.491 51.3276ZM173.763 50.278V53.2654H173.114V49.4671H173.728L173.763 50.278ZM173.609 51.2223L173.339 51.2118C173.341 50.952 173.38 50.7122 173.455 50.4922C173.529 50.2699 173.635 50.0768 173.77 49.913C173.906 49.7491 174.068 49.6228 174.255 49.5338C174.444 49.4426 174.654 49.3969 174.883 49.3969C175.07 49.3969 175.239 49.4227 175.389 49.4742C175.539 49.5233 175.666 49.6029 175.771 49.7129C175.879 49.8229 175.961 49.9656 176.017 50.1411C176.073 50.3143 176.101 50.5261 176.101 50.7765V53.2654H175.448V50.7695C175.448 50.5706 175.419 50.4114 175.361 50.2921C175.302 50.1704 175.217 50.0826 175.104 50.0288C174.992 49.9726 174.854 49.9446 174.69 49.9446C174.529 49.9446 174.381 49.9785 174.248 50.0464C174.117 50.1142 174.003 50.2078 173.907 50.3272C173.814 50.4465 173.74 50.5834 173.686 50.7379C173.635 50.89 173.609 51.0515 173.609 51.2223ZM180.935 48.1262V53.2654H180.286V48.9371L178.976 49.4145V48.8283L180.833 48.1262H180.935Z" fill="#8794BA"/>
<path d="M164.548 84.0578V85.2266H157.22V84.2039L160.888 80.1208C161.339 79.6184 161.687 79.1929 161.933 78.8443C162.185 78.4906 162.359 78.1754 162.456 77.8985C162.559 77.6166 162.61 77.3295 162.61 77.0373C162.61 76.6682 162.533 76.335 162.379 76.0377C162.231 75.7353 162.01 75.4943 161.718 75.3149C161.426 75.1355 161.072 75.0458 160.657 75.0458C160.16 75.0458 159.745 75.1432 159.411 75.338C159.083 75.5276 158.837 75.7942 158.673 76.1377C158.509 76.4811 158.427 76.8759 158.427 77.3218H157.005C157.005 76.6913 157.143 76.1146 157.42 75.5917C157.697 75.0688 158.107 74.6536 158.65 74.346C159.193 74.0333 159.862 73.877 160.657 73.877C161.364 73.877 161.969 74.0026 162.472 74.2538C162.974 74.4998 163.359 74.8484 163.625 75.2995C163.897 75.7455 164.033 76.2684 164.033 76.8682C164.033 77.1962 163.976 77.5295 163.864 77.8678C163.756 78.201 163.605 78.5342 163.41 78.8674C163.22 79.2006 162.997 79.5287 162.741 79.8517C162.49 80.1746 162.221 80.4924 161.933 80.8051L158.935 84.0578H164.548ZM167.485 84.0347H167.631C168.452 84.0347 169.118 83.9194 169.631 83.6887C170.143 83.458 170.538 83.1479 170.815 82.7583C171.092 82.3687 171.281 81.9304 171.384 81.4434C171.486 80.9512 171.538 80.4463 171.538 79.9286V78.2138C171.538 77.7063 171.479 77.2552 171.361 76.8605C171.248 76.4658 171.089 76.1351 170.884 75.8685C170.684 75.602 170.456 75.3995 170.2 75.2611C169.943 75.1227 169.672 75.0535 169.385 75.0535C169.056 75.0535 168.762 75.1201 168.5 75.2534C168.244 75.3815 168.026 75.5635 167.847 75.7993C167.672 76.0351 167.539 76.312 167.447 76.6298C167.354 76.9476 167.308 77.2936 167.308 77.6679C167.308 78.0011 167.349 78.324 167.431 78.6367C167.513 78.9494 167.639 79.2314 167.808 79.4826C167.977 79.7338 168.188 79.9337 168.439 80.0823C168.695 80.2259 168.995 80.2976 169.338 80.2976C169.656 80.2976 169.954 80.2361 170.23 80.1131C170.512 79.9849 170.761 79.8132 170.976 79.5979C171.197 79.3775 171.371 79.1289 171.499 78.852C171.632 78.5752 171.709 78.2856 171.73 77.9831H172.406C172.406 78.4086 172.322 78.829 172.153 79.2442C171.989 79.6543 171.758 80.0285 171.461 80.3669C171.163 80.7052 170.815 80.9769 170.415 81.1819C170.015 81.3819 169.579 81.4818 169.108 81.4818C168.554 81.4818 168.075 81.3742 167.67 81.1589C167.265 80.9436 166.932 80.6565 166.67 80.2976C166.414 79.9388 166.222 79.539 166.093 79.0981C165.97 78.6521 165.909 78.201 165.909 77.7448C165.909 77.2116 165.983 76.7118 166.132 76.2453C166.281 75.7788 166.501 75.3687 166.793 75.015C167.085 74.6562 167.447 74.3768 167.877 74.1769C168.313 73.9769 168.815 73.877 169.385 73.877C170.025 73.877 170.571 74.0051 171.022 74.2615C171.473 74.5178 171.84 74.8612 172.122 75.2918C172.409 75.7224 172.619 76.2069 172.752 76.7451C172.886 77.2834 172.952 77.837 172.952 78.4061V78.9212C172.952 79.5005 172.914 80.09 172.837 80.6898C172.765 81.2845 172.624 81.8535 172.414 82.3969C172.209 82.9402 171.909 83.4272 171.514 83.8578C171.12 84.2833 170.605 84.6217 169.969 84.8728C169.338 85.1189 168.559 85.2419 167.631 85.2419H167.485V84.0347ZM174.806 76.7759V76.1838C174.806 75.7583 174.898 75.3713 175.082 75.0227C175.267 74.6741 175.531 74.3947 175.874 74.1846C176.218 73.9744 176.625 73.8693 177.097 73.8693C177.579 73.8693 177.989 73.9744 178.327 74.1846C178.671 74.3947 178.935 74.6741 179.119 75.0227C179.304 75.3713 179.396 75.7583 179.396 76.1838V76.7759C179.396 77.1911 179.304 77.573 179.119 77.9216C178.94 78.2702 178.678 78.5496 178.335 78.7598C177.997 78.9699 177.589 79.075 177.112 79.075C176.636 79.075 176.223 78.9699 175.874 78.7598C175.531 78.5496 175.267 78.2702 175.082 77.9216C174.898 77.573 174.806 77.1911 174.806 76.7759ZM175.874 76.1838V76.7759C175.874 77.0117 175.918 77.2347 176.005 77.4449C176.097 77.6551 176.236 77.8268 176.42 77.9601C176.605 78.0882 176.836 78.1523 177.112 78.1523C177.389 78.1523 177.617 78.0882 177.797 77.9601C177.976 77.8268 178.109 77.6551 178.197 77.4449C178.284 77.2347 178.327 77.0117 178.327 76.7759V76.1838C178.327 75.9429 178.281 75.7173 178.189 75.5071C178.102 75.2918 177.966 75.1201 177.781 74.9919C177.602 74.8587 177.374 74.792 177.097 74.792C176.825 74.792 176.597 74.8587 176.413 74.9919C176.233 75.1201 176.097 75.2918 176.005 75.5071C175.918 75.7173 175.874 75.9429 175.874 76.1838ZM180.257 83.0812V82.4814C180.257 82.0611 180.35 81.6766 180.534 81.328C180.719 80.9794 180.983 80.7001 181.326 80.4899C181.67 80.2797 182.077 80.1746 182.549 80.1746C183.031 80.1746 183.441 80.2797 183.779 80.4899C184.123 80.7001 184.387 80.9794 184.571 81.328C184.756 81.6766 184.848 82.0611 184.848 82.4814V83.0812C184.848 83.5016 184.756 83.886 184.571 84.2346C184.392 84.5832 184.13 84.8626 183.787 85.0728C183.448 85.283 183.041 85.388 182.564 85.388C182.087 85.388 181.677 85.283 181.334 85.0728C180.99 84.8626 180.724 84.5832 180.534 84.2346C180.35 83.886 180.257 83.5016 180.257 83.0812ZM181.326 82.4814V83.0812C181.326 83.317 181.37 83.5426 181.457 83.7579C181.549 83.9681 181.688 84.1398 181.872 84.2731C182.057 84.4012 182.287 84.4653 182.564 84.4653C182.841 84.4653 183.069 84.4012 183.249 84.2731C183.433 84.1398 183.569 83.9681 183.656 83.7579C183.743 83.5477 183.787 83.3222 183.787 83.0812V82.4814C183.787 82.2405 183.741 82.0149 183.648 81.8048C183.561 81.5946 183.425 81.4254 183.241 81.2973C183.061 81.164 182.831 81.0973 182.549 81.0973C182.277 81.0973 182.049 81.164 181.864 81.2973C181.685 81.4254 181.549 81.5946 181.457 81.8048C181.37 82.0149 181.326 82.2405 181.326 82.4814ZM182.902 75.6225L177.435 84.373L176.636 83.8655L182.103 75.115L182.902 75.6225Z" fill="#0088F0"/>
<path d="M156.605 96.1415V96.0608C156.605 95.787 156.644 95.5331 156.724 95.299C156.804 95.0627 156.918 94.8579 157.068 94.6847C157.218 94.5092 157.399 94.3735 157.612 94.2775C157.825 94.1792 158.064 94.1301 158.328 94.1301C158.595 94.1301 158.835 94.1792 159.048 94.2775C159.263 94.3735 159.446 94.5092 159.596 94.6847C159.748 94.8579 159.864 95.0627 159.943 95.299C160.023 95.5331 160.062 95.787 160.062 96.0608V96.1415C160.062 96.4154 160.023 96.6693 159.943 96.9033C159.864 97.1373 159.748 97.3421 159.596 97.5176C159.446 97.6908 159.264 97.8265 159.051 97.9248C158.841 98.0208 158.602 98.0687 158.335 98.0687C158.069 98.0687 157.829 98.0208 157.616 97.9248C157.403 97.8265 157.22 97.6908 157.068 97.5176C156.918 97.3421 156.804 97.1373 156.724 96.9033C156.644 96.6693 156.605 96.4154 156.605 96.1415ZM157.254 96.0608V96.1415C157.254 96.3311 157.276 96.5101 157.321 96.6786C157.365 96.8448 157.432 96.9922 157.521 97.1209C157.612 97.2497 157.726 97.3515 157.861 97.4263C157.997 97.4989 158.155 97.5352 158.335 97.5352C158.513 97.5352 158.669 97.4989 158.802 97.4263C158.938 97.3515 159.05 97.2497 159.139 97.1209C159.228 96.9922 159.295 96.8448 159.339 96.6786C159.386 96.5101 159.409 96.3311 159.409 96.1415V96.0608C159.409 95.8736 159.386 95.6969 159.339 95.5307C159.295 95.3622 159.227 95.2136 159.136 95.0849C159.047 94.9539 158.934 94.8509 158.799 94.776C158.665 94.7011 158.508 94.6637 158.328 94.6637C158.15 94.6637 157.994 94.7011 157.858 94.776C157.725 94.8509 157.612 94.9539 157.521 95.0849C157.432 95.2136 157.365 95.3622 157.321 95.5307C157.276 95.6969 157.254 95.8736 157.254 96.0608ZM161.526 94.9305V99.4589H160.873V94.2003H161.47L161.526 94.9305ZM164.085 96.0678V96.1415C164.085 96.4177 164.053 96.6739 163.987 96.9103C163.922 97.1443 163.826 97.3479 163.699 97.5211C163.575 97.6943 163.422 97.8289 163.239 97.9248C163.057 98.0208 162.847 98.0687 162.611 98.0687C162.37 98.0687 162.157 98.029 161.972 97.9494C161.787 97.8698 161.63 97.754 161.502 97.6019C161.373 97.4497 161.27 97.2672 161.193 97.0542C161.118 96.8413 161.066 96.6014 161.038 96.3346V95.9414C161.066 95.6606 161.119 95.409 161.196 95.1867C161.274 94.9644 161.375 94.7748 161.502 94.618C161.63 94.4589 161.786 94.3384 161.969 94.2565C162.151 94.1722 162.362 94.1301 162.6 94.1301C162.839 94.1301 163.051 94.1769 163.236 94.2705C163.421 94.3618 163.576 94.4928 163.703 94.6637C163.829 94.8345 163.924 95.0393 163.987 95.278C164.053 95.5144 164.085 95.7776 164.085 96.0678ZM163.432 96.1415V96.0678C163.432 95.8783 163.413 95.7004 163.373 95.5342C163.333 95.3657 163.271 95.2183 163.187 95.0919C163.105 94.9632 162.999 94.8626 162.871 94.79C162.742 94.7152 162.589 94.6777 162.411 94.6777C162.247 94.6777 162.104 94.7058 161.983 94.762C161.863 94.8181 161.761 94.8942 161.677 94.9901C161.593 95.0837 161.524 95.1914 161.47 95.3131C161.419 95.4324 161.38 95.5565 161.354 95.6852V96.5944C161.401 96.7582 161.467 96.9127 161.551 97.0578C161.635 97.2005 161.747 97.3164 161.888 97.4053C162.028 97.4919 162.205 97.5352 162.418 97.5352C162.593 97.5352 162.744 97.4989 162.871 97.4263C162.999 97.3515 163.105 97.2497 163.187 97.1209C163.271 96.9922 163.333 96.8448 163.373 96.6786C163.413 96.5101 163.432 96.3311 163.432 96.1415ZM166.504 94.2003V94.6988H164.45V94.2003H166.504ZM165.145 93.2771H165.795V97.0578C165.795 97.1865 165.815 97.2836 165.855 97.3491C165.894 97.4146 165.946 97.4579 166.009 97.479C166.072 97.5001 166.14 97.5106 166.213 97.5106C166.266 97.5106 166.323 97.5059 166.381 97.4965C166.442 97.4848 166.488 97.4755 166.518 97.4685L166.522 97.9985C166.47 98.0149 166.402 98.0301 166.318 98.0442C166.236 98.0606 166.137 98.0687 166.02 98.0687C165.86 98.0687 165.714 98.0371 165.581 97.974C165.447 97.9108 165.341 97.8055 165.261 97.658C165.184 97.5083 165.145 97.307 165.145 97.0542V93.2771ZM167.971 94.2003V97.9985H167.318V94.2003H167.971ZM167.269 93.1928C167.269 93.0875 167.301 92.9986 167.364 92.926C167.43 92.8535 167.526 92.8172 167.652 92.8172C167.776 92.8172 167.871 92.8535 167.936 92.926C168.004 92.9986 168.038 93.0875 168.038 93.1928C168.038 93.2934 168.004 93.38 167.936 93.4526C167.871 93.5228 167.776 93.5579 167.652 93.5579C167.526 93.5579 167.43 93.5228 167.364 93.4526C167.301 93.38 167.269 93.2934 167.269 93.1928ZM168.842 96.1415V96.0608C168.842 95.787 168.882 95.5331 168.961 95.299C169.041 95.0627 169.155 94.8579 169.305 94.6847C169.455 94.5092 169.636 94.3735 169.849 94.2775C170.062 94.1792 170.301 94.1301 170.565 94.1301C170.832 94.1301 171.072 94.1792 171.285 94.2775C171.5 94.3735 171.683 94.5092 171.833 94.6847C171.985 94.8579 172.101 95.0627 172.18 95.299C172.26 95.5331 172.3 95.787 172.3 96.0608V96.1415C172.3 96.4154 172.26 96.6693 172.18 96.9033C172.101 97.1373 171.985 97.3421 171.833 97.5176C171.683 97.6908 171.502 97.8265 171.289 97.9248C171.078 98.0208 170.839 98.0687 170.573 98.0687C170.306 98.0687 170.066 98.0208 169.853 97.9248C169.64 97.8265 169.457 97.6908 169.305 97.5176C169.155 97.3421 169.041 97.1373 168.961 96.9033C168.882 96.6693 168.842 96.4154 168.842 96.1415ZM169.491 96.0608V96.1415C169.491 96.3311 169.514 96.5101 169.558 96.6786C169.602 96.8448 169.669 96.9922 169.758 97.1209C169.849 97.2497 169.963 97.3515 170.099 97.4263C170.234 97.4989 170.392 97.5352 170.573 97.5352C170.75 97.5352 170.906 97.4989 171.039 97.4263C171.175 97.3515 171.287 97.2497 171.376 97.1209C171.465 96.9922 171.532 96.8448 171.576 96.6786C171.623 96.5101 171.647 96.3311 171.647 96.1415V96.0608C171.647 95.8736 171.623 95.6969 171.576 95.5307C171.532 95.3622 171.464 95.2136 171.373 95.0849C171.284 94.9539 171.172 94.8509 171.036 94.776C170.902 94.7011 170.746 94.6637 170.565 94.6637C170.388 94.6637 170.231 94.7011 170.095 94.776C169.962 94.8509 169.849 94.9539 169.758 95.0849C169.669 95.2136 169.602 95.3622 169.558 95.5307C169.514 95.6969 169.491 95.8736 169.491 96.0608ZM173.763 95.0112V97.9985H173.114V94.2003H173.728L173.763 95.0112ZM173.609 95.9555L173.339 95.945C173.341 95.6852 173.38 95.4453 173.455 95.2253C173.529 95.003 173.635 94.8099 173.77 94.6461C173.906 94.4823 174.068 94.3559 174.255 94.267C174.444 94.1757 174.654 94.1301 174.883 94.1301C175.07 94.1301 175.239 94.1558 175.389 94.2073C175.539 94.2565 175.666 94.336 175.771 94.446C175.879 94.556 175.961 94.6988 176.017 94.8743C176.073 95.0475 176.101 95.2593 176.101 95.5097V97.9985H175.448V95.5027C175.448 95.3037 175.419 95.1446 175.361 95.0252C175.302 94.9035 175.217 94.8158 175.104 94.762C174.992 94.7058 174.854 94.6777 174.69 94.6777C174.529 94.6777 174.381 94.7116 174.248 94.7795C174.117 94.8474 174.003 94.941 173.907 95.0603C173.814 95.1797 173.74 95.3166 173.686 95.4711C173.635 95.6232 173.609 95.7847 173.609 95.9555ZM182.15 97.465V97.9985H178.804V97.5317L180.479 95.6676C180.685 95.4383 180.844 95.2441 180.956 95.0849C181.071 94.9234 181.15 94.7795 181.195 94.6531C181.242 94.5244 181.265 94.3934 181.265 94.26C181.265 94.0915 181.23 93.9394 181.16 93.8036C181.092 93.6655 180.991 93.5556 180.858 93.4736C180.725 93.3917 180.563 93.3508 180.374 93.3508C180.147 93.3508 179.957 93.3952 179.805 93.4842C179.655 93.5708 179.543 93.6925 179.468 93.8493C179.393 94.0061 179.356 94.1863 179.356 94.3899H178.706C178.706 94.102 178.769 93.8387 178.896 93.6C179.022 93.3613 179.209 93.1718 179.457 93.0313C179.705 92.8886 180.011 92.8172 180.374 92.8172C180.696 92.8172 180.973 92.8745 181.202 92.9892C181.431 93.1015 181.607 93.2607 181.729 93.4666C181.853 93.6702 181.915 93.9089 181.915 94.1827C181.915 94.3325 181.889 94.4846 181.837 94.6391C181.788 94.7912 181.719 94.9433 181.63 95.0954C181.544 95.2476 181.442 95.3973 181.325 95.5448C181.21 95.6922 181.087 95.8373 180.956 95.9801L179.587 97.465H182.15Z" fill="#8794BA"/>
<path d="M59.0721 2.10597V5.5321H58.6391V2.64657L57.7662 2.96484V2.57402L59.0042 2.10597H59.0721ZM62.4935 4.61004C62.4935 4.81755 62.4451 4.99385 62.3484 5.13894C62.2532 5.28248 62.1237 5.39169 61.9599 5.46658C61.7977 5.54147 61.6144 5.57891 61.41 5.57891C61.2056 5.57891 61.0215 5.54147 60.8577 5.46658C60.6939 5.39169 60.5644 5.28248 60.4692 5.13894C60.374 4.99385 60.3264 4.81755 60.3264 4.61004C60.3264 4.47431 60.3522 4.35027 60.4037 4.23794C60.4567 4.12405 60.5308 4.02498 60.626 3.94073C60.7227 3.85648 60.8366 3.79173 60.9677 3.74649C61.1003 3.69968 61.2462 3.67628 61.4053 3.67628C61.6144 3.67628 61.8008 3.71685 61.9646 3.79797C62.1284 3.87754 62.2571 3.98753 62.3508 4.12795C62.4459 4.26837 62.4935 4.42906 62.4935 4.61004ZM62.0582 4.60068C62.0582 4.47431 62.0309 4.36276 61.9763 4.26603C61.9217 4.16773 61.8453 4.09129 61.747 4.03668C61.6487 3.98207 61.5348 3.95477 61.4053 3.95477C61.2727 3.95477 61.158 3.98207 61.0613 4.03668C60.9661 4.09129 60.892 4.16773 60.8389 4.26603C60.7859 4.36276 60.7594 4.47431 60.7594 4.60068C60.7594 4.73174 60.7851 4.84407 60.8366 4.93768C60.8897 5.02973 60.9645 5.10072 61.0613 5.15064C61.1596 5.19901 61.2758 5.22319 61.41 5.22319C61.5441 5.22319 61.6596 5.19901 61.7563 5.15064C61.8531 5.10072 61.9272 5.02973 61.9787 4.93768C62.0317 4.84407 62.0582 4.73174 62.0582 4.60068ZM62.4139 3.01165C62.4139 3.17703 62.3703 3.32602 62.2829 3.45864C62.1955 3.59125 62.0762 3.69578 61.9248 3.77223C61.7735 3.84868 61.6019 3.8869 61.41 3.8869C61.2149 3.8869 61.041 3.84868 60.8881 3.77223C60.7368 3.69578 60.6182 3.59125 60.5324 3.45864C60.4466 3.32602 60.4037 3.17703 60.4037 3.01165C60.4037 2.81351 60.4466 2.64501 60.5324 2.50615C60.6197 2.3673 60.7391 2.26121 60.8904 2.18788C61.0418 2.11455 61.2142 2.07788 61.4076 2.07788C61.6027 2.07788 61.7758 2.11455 61.9272 2.18788C62.0785 2.26121 62.1971 2.3673 62.2829 2.50615C62.3703 2.64501 62.4139 2.81351 62.4139 3.01165ZM61.981 3.01867C61.981 2.90478 61.9568 2.80414 61.9084 2.71678C61.8601 2.62941 61.793 2.56076 61.7072 2.51083C61.6214 2.45935 61.5215 2.4336 61.4076 2.4336C61.2937 2.4336 61.1939 2.45779 61.1081 2.50615C61.0238 2.55296 60.9575 2.62004 60.9092 2.70741C60.8624 2.79478 60.8389 2.89854 60.8389 3.01867C60.8389 3.13568 60.8624 3.23787 60.9092 3.32524C60.9575 3.41261 61.0246 3.48048 61.1104 3.52884C61.1962 3.57721 61.2961 3.60139 61.41 3.60139C61.5239 3.60139 61.6229 3.57721 61.7072 3.52884C61.793 3.48048 61.8601 3.41261 61.9084 3.32524C61.9568 3.23787 61.981 3.13568 61.981 3.01867ZM63.9889 3.90563V4.26134H62.8469V3.90563H63.9889ZM66.5983 5.17639V5.5321H64.3681V5.22085L65.4844 3.97817C65.6217 3.82528 65.7277 3.69578 65.8026 3.58969C65.8791 3.48204 65.9321 3.38609 65.9618 3.30184C65.993 3.21603 66.0086 3.12866 66.0086 3.03973C66.0086 2.9274 65.9852 2.82599 65.9384 2.7355C65.8931 2.64345 65.826 2.57012 65.7371 2.51551C65.6482 2.46091 65.5405 2.4336 65.4142 2.4336C65.2628 2.4336 65.1364 2.46325 65.035 2.52253C64.9352 2.58026 64.8603 2.66139 64.8104 2.76592C64.7604 2.87045 64.7355 2.99059 64.7355 3.12632H64.3025C64.3025 2.93442 64.3447 2.7589 64.4289 2.59976C64.5132 2.44062 64.638 2.31425 64.8033 2.22064C64.9687 2.12547 65.1723 2.07788 65.4142 2.07788C65.6295 2.07788 65.8136 2.11611 65.9665 2.19256C66.1193 2.26745 66.2364 2.37354 66.3175 2.51083C66.4002 2.64657 66.4415 2.8057 66.4415 2.98824C66.4415 3.0881 66.4244 3.18951 66.39 3.29248C66.3573 3.39389 66.3112 3.4953 66.252 3.59671C66.1942 3.69812 66.1264 3.79797 66.0484 3.89626C65.9719 3.99456 65.89 4.09129 65.8026 4.18646L64.8899 5.17639H66.5983ZM69.3645 4.38538V4.7411H66.9026V4.48601L68.4284 2.12469H68.7818L68.4027 2.80805L67.394 4.38538H69.3645ZM68.8894 2.12469V5.5321H68.4565V2.12469H68.8894Z" fill="#8794BA"/>
<path d="M116.198 36.3298V36.6855H113.967V36.3743L115.084 35.1316C115.221 34.9787 115.327 34.8492 115.402 34.7431C115.478 34.6355 115.532 34.5395 115.561 34.4553C115.592 34.3695 115.608 34.2821 115.608 34.1932C115.608 34.0808 115.585 33.9794 115.538 33.8889C115.493 33.7969 115.425 33.7236 115.336 33.669C115.248 33.6143 115.14 33.587 115.014 33.587C114.862 33.587 114.736 33.6167 114.634 33.676C114.535 33.7337 114.46 33.8148 114.41 33.9194C114.36 34.0239 114.335 34.144 114.335 34.2798H113.902C113.902 34.0879 113.944 33.9123 114.028 33.7532C114.113 33.5941 114.237 33.4677 114.403 33.3741C114.568 33.2789 114.772 33.2313 115.014 33.2313C115.229 33.2313 115.413 33.2696 115.566 33.346C115.719 33.4209 115.836 33.527 115.917 33.6643C116 33.8 116.041 33.9591 116.041 34.1417C116.041 34.2415 116.024 34.3429 115.989 34.4459C115.957 34.5473 115.911 34.6487 115.851 34.7502C115.794 34.8516 115.726 34.9514 115.648 35.0497C115.571 35.148 115.489 35.2447 115.402 35.3399L114.489 36.3298H116.198ZM117.209 35.0637L116.862 34.9748L117.033 33.2781H118.781V33.6783H117.401L117.298 34.6051C117.36 34.5692 117.439 34.5356 117.534 34.5044C117.631 34.4732 117.741 34.4576 117.866 34.4576C118.024 34.4576 118.165 34.4849 118.29 34.5395C118.415 34.5926 118.521 34.669 118.608 34.7689C118.697 34.8687 118.765 34.9889 118.812 35.1293C118.859 35.2697 118.882 35.4265 118.882 35.5997C118.882 35.7635 118.859 35.914 118.814 36.0513C118.77 36.1886 118.704 36.3088 118.615 36.4117C118.526 36.5131 118.414 36.5919 118.278 36.6481C118.144 36.7043 117.986 36.7324 117.803 36.7324C117.666 36.7324 117.536 36.7136 117.412 36.6762C117.291 36.6372 117.181 36.5787 117.085 36.5007C116.989 36.4211 116.911 36.3228 116.851 36.2058C116.791 36.0872 116.754 35.9484 116.738 35.7892H117.15C117.169 35.9172 117.206 36.0248 117.263 36.1122C117.319 36.1996 117.392 36.2659 117.483 36.3111C117.575 36.3548 117.681 36.3766 117.803 36.3766C117.906 36.3766 117.997 36.3587 118.077 36.3228C118.156 36.2869 118.224 36.2354 118.278 36.1684C118.333 36.1013 118.374 36.0201 118.402 35.925C118.432 35.8298 118.447 35.7229 118.447 35.6043C118.447 35.4967 118.432 35.3968 118.402 35.3048C118.373 35.2127 118.328 35.1324 118.269 35.0637C118.211 34.9951 118.14 34.9421 118.056 34.9046C117.972 34.8656 117.875 34.8461 117.766 34.8461C117.621 34.8461 117.511 34.8656 117.436 34.9046C117.362 34.9436 117.287 34.9967 117.209 35.0637ZM120.305 35.0591V35.4148H119.163V35.0591H120.305ZM121.314 34.7689H121.622C121.774 34.7689 121.899 34.7439 121.997 34.694C122.097 34.6425 122.171 34.5731 122.219 34.4857C122.269 34.3968 122.294 34.2969 122.294 34.1862C122.294 34.0551 122.272 33.9451 122.229 33.8562C122.185 33.7672 122.119 33.7002 122.032 33.6549C121.945 33.6097 121.834 33.587 121.7 33.587C121.578 33.587 121.47 33.6112 121.377 33.6596C121.285 33.7064 121.212 33.7735 121.159 33.8609C121.108 33.9482 121.082 34.0512 121.082 34.1698H120.649C120.649 33.9966 120.693 33.839 120.78 33.697C120.867 33.5551 120.99 33.442 121.147 33.3577C121.306 33.2735 121.491 33.2313 121.7 33.2313C121.906 33.2313 122.086 33.268 122.24 33.3413C122.395 33.4131 122.515 33.5207 122.601 33.6643C122.686 33.8063 122.729 33.9833 122.729 34.1955C122.729 34.2813 122.709 34.3734 122.669 34.4717C122.63 34.5684 122.568 34.6589 122.484 34.7431C122.401 34.8274 122.293 34.8968 122.161 34.9514C122.028 35.0045 121.869 35.031 121.683 35.031H121.314V34.7689ZM121.314 35.1246V34.8648H121.683C121.9 34.8648 122.08 34.8906 122.222 34.9421C122.363 34.9935 122.475 35.0622 122.556 35.148C122.639 35.2338 122.697 35.3282 122.729 35.4312C122.764 35.5326 122.781 35.634 122.781 35.7354C122.781 35.8945 122.754 36.0357 122.699 36.159C122.646 36.2822 122.57 36.3868 122.472 36.4726C122.375 36.5584 122.261 36.6231 122.13 36.6668C121.999 36.7105 121.856 36.7324 121.702 36.7324C121.554 36.7324 121.414 36.7113 121.283 36.6692C121.154 36.627 121.039 36.5662 120.939 36.4866C120.839 36.4055 120.761 36.3064 120.705 36.1894C120.649 36.0708 120.621 35.9359 120.621 35.7845H121.054C121.054 35.9031 121.079 36.0069 121.131 36.0958C121.184 36.1847 121.259 36.2542 121.356 36.3041C121.454 36.3525 121.569 36.3766 121.702 36.3766C121.835 36.3766 121.948 36.354 122.044 36.3088C122.14 36.262 122.215 36.1918 122.266 36.0981C122.319 36.0045 122.346 35.8867 122.346 35.7448C122.346 35.6028 122.316 35.4866 122.257 35.3961C122.197 35.304 122.113 35.2361 122.004 35.1925C121.896 35.1472 121.769 35.1246 121.622 35.1246H121.314ZM125.68 35.5388V35.8945H123.218V35.6395L124.744 33.2781H125.098L124.719 33.9615L123.71 35.5388H125.68ZM125.205 33.2781V36.6855H124.772V33.2781H125.205Z" fill="#8794BA"/>
<path d="M114.597 87.0908H114.906C115.057 87.0908 115.182 87.0659 115.28 87.0159C115.38 86.9645 115.454 86.895 115.503 86.8077C115.553 86.7187 115.578 86.6189 115.578 86.5081C115.578 86.3771 115.556 86.2671 115.512 86.1781C115.468 86.0892 115.403 86.0221 115.315 85.9769C115.228 85.9316 115.117 85.909 114.983 85.909C114.861 85.909 114.754 85.9332 114.66 85.9816C114.568 86.0284 114.496 86.0954 114.443 86.1828C114.391 86.2702 114.365 86.3732 114.365 86.4917H113.932C113.932 86.3186 113.976 86.161 114.063 86.019C114.151 85.877 114.273 85.7639 114.431 85.6797C114.59 85.5954 114.774 85.5533 114.983 85.5533C115.189 85.5533 115.369 85.59 115.524 85.6633C115.678 85.735 115.798 85.8427 115.884 85.9862C115.97 86.1282 116.013 86.3053 116.013 86.5175C116.013 86.6033 115.993 86.6953 115.952 86.7936C115.913 86.8904 115.851 86.9808 115.767 87.0651C115.684 87.1493 115.577 87.2188 115.444 87.2734C115.312 87.3264 115.152 87.3529 114.967 87.3529H114.597V87.0908ZM114.597 87.4466V87.1868H114.967C115.184 87.1868 115.363 87.2125 115.505 87.264C115.647 87.3155 115.759 87.3841 115.84 87.47C115.922 87.5558 115.98 87.6502 116.013 87.7531C116.047 87.8545 116.064 87.956 116.064 88.0574C116.064 88.2165 116.037 88.3577 115.982 88.4809C115.929 88.6042 115.854 88.7087 115.755 88.7945C115.659 88.8804 115.545 88.9451 115.414 88.9888C115.283 89.0325 115.14 89.0543 114.985 89.0543C114.837 89.0543 114.698 89.0333 114.567 88.9911C114.437 88.949 114.322 88.8882 114.223 88.8086C114.123 88.7275 114.045 88.6284 113.988 88.5114C113.932 88.3928 113.904 88.2578 113.904 88.1065H114.337C114.337 88.2251 114.363 88.3288 114.414 88.4178C114.467 88.5067 114.542 88.5761 114.639 88.626C114.737 88.6744 114.853 88.6986 114.985 88.6986C115.118 88.6986 115.232 88.676 115.327 88.6307C115.424 88.5839 115.498 88.5137 115.549 88.4201C115.602 88.3265 115.629 88.2087 115.629 88.0667C115.629 87.9247 115.599 87.8085 115.54 87.718C115.481 87.626 115.397 87.5581 115.287 87.5144C115.18 87.4692 115.053 87.4466 114.906 87.4466H114.597ZM117.209 87.3857L116.862 87.2968L117.033 85.6001H118.781V86.0003H117.401L117.298 86.927C117.36 86.8911 117.439 86.8576 117.534 86.8264C117.631 86.7952 117.741 86.7796 117.866 86.7796C118.024 86.7796 118.165 86.8069 118.29 86.8615C118.415 86.9145 118.521 86.991 118.608 87.0908C118.697 87.1907 118.765 87.3108 118.812 87.4512C118.859 87.5917 118.882 87.7484 118.882 87.9216C118.882 88.0854 118.859 88.236 118.814 88.3733C118.77 88.5106 118.704 88.6307 118.615 88.7337C118.526 88.8351 118.414 88.9139 118.278 88.9701C118.144 89.0262 117.986 89.0543 117.803 89.0543C117.666 89.0543 117.536 89.0356 117.412 88.9981C117.291 88.9591 117.181 88.9006 117.085 88.8226C116.989 88.7431 116.911 88.6448 116.851 88.5278C116.791 88.4092 116.754 88.2703 116.738 88.1112H117.15C117.169 88.2391 117.206 88.3468 117.263 88.4341C117.319 88.5215 117.392 88.5878 117.483 88.6331C117.575 88.6768 117.681 88.6986 117.803 88.6986C117.906 88.6986 117.997 88.6807 118.077 88.6448C118.156 88.6089 118.224 88.5574 118.278 88.4903C118.333 88.4232 118.374 88.3421 118.402 88.2469C118.432 88.1518 118.447 88.0449 118.447 87.9263C118.447 87.8187 118.432 87.7188 118.402 87.6268C118.373 87.5347 118.328 87.4544 118.269 87.3857C118.211 87.3171 118.14 87.264 118.056 87.2266C117.972 87.1876 117.875 87.1681 117.766 87.1681C117.621 87.1681 117.511 87.1876 117.436 87.2266C117.362 87.2656 117.287 87.3186 117.209 87.3857ZM120.305 87.381V87.7367H119.163V87.381H120.305ZM122.984 87.8608V88.2165H120.522V87.9614L122.048 85.6001H122.402L122.023 86.2834L121.014 87.8608H122.984ZM122.509 85.6001V89.0075H122.076V85.6001H122.509ZM125.68 87.8608V88.2165H123.218V87.9614L124.744 85.6001H125.098L124.719 86.2834L123.71 87.8608H125.68ZM125.205 85.6001V89.0075H124.772V85.6001H125.205Z" fill="#8794BA"/>
<path d="M59.952 121.81V122.166H57.49V121.911L59.0159 119.549H59.3693L58.9901 120.233L57.9815 121.81H59.952ZM59.4769 119.549V122.957H59.044V119.549H59.4769ZM60.8928 121.335L60.5464 121.246L60.7173 119.549H62.4654V119.95H61.0847L60.9817 120.876C61.0441 120.84 61.1229 120.807 61.2181 120.776C61.3148 120.745 61.4256 120.729 61.5504 120.729C61.708 120.729 61.8492 120.756 61.974 120.811C62.0988 120.864 62.2049 120.94 62.2922 121.04C62.3812 121.14 62.449 121.26 62.4959 121.401C62.5427 121.541 62.5661 121.698 62.5661 121.871C62.5661 122.035 62.5434 122.185 62.4982 122.323C62.4545 122.46 62.3882 122.58 62.2993 122.683C62.2103 122.784 62.098 122.863 61.9623 122.919C61.8281 122.976 61.6697 123.004 61.4872 123.004C61.3499 123.004 61.2196 122.985 61.0964 122.947C60.9747 122.908 60.8655 122.85 60.7687 122.772C60.6736 122.692 60.5956 122.594 60.5347 122.477C60.4754 122.359 60.438 122.22 60.4224 122.061H60.8343C60.853 122.188 60.8904 122.296 60.9466 122.383C61.0028 122.471 61.0761 122.537 61.1666 122.582C61.2586 122.626 61.3655 122.648 61.4872 122.648C61.5902 122.648 61.6814 122.63 61.761 122.594C61.8406 122.558 61.9077 122.507 61.9623 122.44C62.0169 122.373 62.0582 122.291 62.0863 122.196C62.1159 122.101 62.1308 121.994 62.1308 121.876C62.1308 121.768 62.1159 121.668 62.0863 121.576C62.0567 121.484 62.0122 121.404 61.9529 121.335C61.8952 121.266 61.8242 121.213 61.7399 121.176C61.6557 121.137 61.559 121.117 61.4498 121.117C61.3047 121.117 61.1947 121.137 61.1198 121.176C61.0465 121.215 60.9708 121.268 60.8928 121.335ZM63.9889 121.33V121.686H62.8469V121.33H63.9889ZM64.9133 121.335L64.567 121.246L64.7378 119.549H66.486V119.95H65.1052L65.0023 120.876C65.0647 120.84 65.1435 120.807 65.2386 120.776C65.3354 120.745 65.4461 120.729 65.5709 120.729C65.7285 120.729 65.8697 120.756 65.9945 120.811C66.1193 120.864 66.2254 120.94 66.3128 121.04C66.4017 121.14 66.4696 121.26 66.5164 121.401C66.5632 121.541 66.5866 121.698 66.5866 121.871C66.5866 122.035 66.564 122.185 66.5188 122.323C66.4751 122.46 66.4088 122.58 66.3198 122.683C66.2309 122.784 66.1186 122.863 65.9828 122.919C65.8487 122.976 65.6903 123.004 65.5078 123.004C65.3705 123.004 65.2402 122.985 65.1169 122.947C64.9952 122.908 64.886 122.85 64.7893 122.772C64.6941 122.692 64.6161 122.594 64.5553 122.477C64.496 122.359 64.4585 122.22 64.4429 122.061H64.8548C64.8736 122.188 64.911 122.296 64.9672 122.383C65.0233 122.471 65.0967 122.537 65.1871 122.582C65.2792 122.626 65.3861 122.648 65.5078 122.648C65.6107 122.648 65.702 122.63 65.7816 122.594C65.8611 122.558 65.9282 122.507 65.9828 122.44C66.0374 122.373 66.0788 122.291 66.1069 122.196C66.1365 122.101 66.1513 121.994 66.1513 121.876C66.1513 121.768 66.1365 121.668 66.1069 121.576C66.0772 121.484 66.0328 121.404 65.9735 121.335C65.9157 121.266 65.8448 121.213 65.7605 121.176C65.6763 121.137 65.5795 121.117 65.4703 121.117C65.3252 121.117 65.2152 121.137 65.1403 121.176C65.067 121.215 64.9913 121.268 64.9133 121.335ZM69.3645 121.81V122.166H66.9026V121.911L68.4284 119.549H68.7818L68.4027 120.233L67.394 121.81H69.3645ZM68.8894 119.549V122.957H68.4565V119.549H68.8894Z" fill="#8794BA"/>
<path d="M1.88088 87.3857L1.53452 87.2968L1.70536 85.6001H3.45353V86.0003H2.07278L1.96981 86.927C2.03222 86.8911 2.11101 86.8576 2.20618 86.8264C2.30291 86.7952 2.41368 86.7796 2.53849 86.7796C2.69607 86.7796 2.83727 86.8069 2.96208 86.8615C3.08689 86.9145 3.19298 86.991 3.28035 87.0908C3.36928 87.1907 3.43715 87.3108 3.48396 87.4512C3.53076 87.5917 3.55416 87.7484 3.55416 87.9216C3.55416 88.0854 3.53154 88.236 3.4863 88.3733C3.44261 88.5106 3.3763 88.6307 3.28737 88.7337C3.19844 88.8351 3.08611 88.9139 2.95038 88.9701C2.8162 89.0262 2.65785 89.0543 2.47531 89.0543C2.33801 89.0543 2.20774 89.0356 2.08448 88.9981C1.96279 88.9591 1.85358 88.9006 1.75685 88.8226C1.66168 88.7431 1.58367 88.6448 1.52282 88.5278C1.46353 88.4092 1.42609 88.2703 1.41049 88.1112H1.82237C1.8411 88.2391 1.87854 88.3468 1.93471 88.4341C1.99087 88.5215 2.0642 88.5878 2.15469 88.6331C2.24674 88.6768 2.35361 88.6986 2.47531 88.6986C2.57828 88.6986 2.66955 88.6807 2.74912 88.6448C2.82868 88.6089 2.89577 88.5574 2.95038 88.4903C3.00498 88.4232 3.04633 88.3421 3.07441 88.2469C3.10405 88.1518 3.11888 88.0449 3.11888 87.9263C3.11888 87.8187 3.10405 87.7188 3.07441 87.6268C3.04477 87.5347 3.0003 87.4544 2.94102 87.3857C2.88329 87.3171 2.8123 87.264 2.72805 87.2266C2.6438 87.1876 2.54707 87.1681 2.43786 87.1681C2.29277 87.1681 2.18277 87.1876 2.10789 87.2266C2.03456 87.2656 1.95889 87.3186 1.88088 87.3857ZM4.57686 87.3857L4.2305 87.2968L4.40134 85.6001H6.14951V86.0003H4.76876L4.66579 86.927C4.72819 86.8911 4.80698 86.8576 4.90215 86.8264C4.99888 86.7952 5.10965 86.7796 5.23447 86.7796C5.39205 86.7796 5.53324 86.8069 5.65806 86.8615C5.78287 86.9145 5.88896 86.991 5.97633 87.0908C6.06526 87.1907 6.13313 87.3108 6.17993 87.4512C6.22674 87.5917 6.25014 87.7484 6.25014 87.9216C6.25014 88.0854 6.22752 88.236 6.18227 88.3733C6.13859 88.5106 6.07228 88.6307 5.98335 88.7337C5.89442 88.8351 5.78209 88.9139 5.64635 88.9701C5.51218 89.0262 5.35382 89.0543 5.17128 89.0543C5.03399 89.0543 4.90371 89.0356 4.78046 88.9981C4.65877 88.9591 4.54955 88.9006 4.45282 88.8226C4.35765 88.7431 4.27964 88.6448 4.2188 88.5278C4.15951 88.4092 4.12207 88.2703 4.10646 88.1112H4.51835C4.53707 88.2391 4.57452 88.3468 4.63068 88.4341C4.68685 88.5215 4.76018 88.5878 4.85067 88.6331C4.94272 88.6768 5.04959 88.6986 5.17128 88.6986C5.27425 88.6986 5.36552 88.6807 5.44509 88.6448C5.52466 88.6089 5.59175 88.5574 5.64635 88.4903C5.70096 88.4232 5.7423 88.3421 5.77039 88.2469C5.80003 88.1518 5.81485 88.0449 5.81485 87.9263C5.81485 87.8187 5.80003 87.7188 5.77039 87.6268C5.74074 87.5347 5.69628 87.4544 5.63699 87.3857C5.57927 87.3171 5.50828 87.264 5.42403 87.2266C5.33978 87.1876 5.24305 87.1681 5.13384 87.1681C4.98874 87.1681 4.87875 87.1876 4.80386 87.2266C4.73053 87.2656 4.65487 87.3186 4.57686 87.3857ZM7.67302 87.381V87.7367H6.53097V87.381H7.67302ZM9.71138 85.5954H9.74882V85.9628H9.71138C9.48204 85.9628 9.29013 86.0003 9.13568 86.0752C8.98122 86.1485 8.85875 86.2476 8.76826 86.3724C8.67777 86.4956 8.61224 86.6345 8.57168 86.7889C8.53267 86.9434 8.51317 87.1002 8.51317 87.2593V87.7602C8.51317 87.9115 8.53111 88.0457 8.56699 88.1627C8.60288 88.2781 8.65202 88.3756 8.71443 88.4552C8.77684 88.5348 8.84705 88.5948 8.92505 88.6354C9.00462 88.676 9.08731 88.6963 9.17312 88.6963C9.27297 88.6963 9.3619 88.6775 9.43991 88.6401C9.51792 88.6011 9.58345 88.5473 9.63649 88.4786C9.6911 88.4084 9.73244 88.3257 9.76053 88.2305C9.78861 88.1354 9.80265 88.0308 9.80265 87.9169C9.80265 87.8155 9.79017 87.718 9.76521 87.6244C9.74024 87.5292 9.70202 87.445 9.65053 87.3717C9.59905 87.2968 9.5343 87.2383 9.45629 87.1961C9.37984 87.1525 9.28857 87.1306 9.18248 87.1306C9.06235 87.1306 8.95002 87.1603 8.84549 87.2196C8.74251 87.2773 8.65748 87.3537 8.5904 87.4489C8.52487 87.5425 8.48743 87.6447 8.47807 87.7555L8.24872 87.7531C8.27056 87.5784 8.31113 87.4294 8.37041 87.3061C8.43126 87.1813 8.50615 87.0799 8.59508 87.0019C8.68557 86.9223 8.7862 86.8646 8.89697 86.8287C9.0093 86.7913 9.12788 86.7726 9.25269 86.7726C9.42275 86.7726 9.5694 86.8045 9.69266 86.8685C9.81591 86.9325 9.91732 87.0183 9.99689 87.1259C10.0765 87.232 10.135 87.3522 10.1724 87.4863C10.2114 87.619 10.2309 87.7555 10.2309 87.8959C10.2309 88.0566 10.2083 88.2071 10.1631 88.3476C10.1178 88.488 10.0499 88.6112 9.95945 88.7173C9.87052 88.8234 9.76053 88.9061 9.62947 88.9654C9.49842 89.0247 9.3463 89.0543 9.17312 89.0543C8.98902 89.0543 8.82832 89.0169 8.69103 88.942C8.55373 88.8655 8.43984 88.7641 8.34935 88.6377C8.25886 88.5114 8.19099 88.371 8.14575 88.2165C8.1005 88.062 8.07788 87.9052 8.07788 87.7461V87.5425C8.07788 87.3022 8.10206 87.0667 8.15043 86.8357C8.19879 86.6048 8.28226 86.3958 8.40084 86.2086C8.52097 86.0213 8.68713 85.8723 8.89931 85.7616C9.11149 85.6508 9.38218 85.5954 9.71138 85.5954ZM13.0486 87.8608V88.2165H10.5866V87.9614L12.1125 85.6001H12.4659L12.0867 86.2834L11.0781 87.8608H13.0486ZM12.5735 85.6001V89.0075H12.1406V85.6001H12.5735Z" fill="#8794BA"/>
<path d="M4.99347 33.2735H5.03092V33.6409H4.99347C4.76413 33.6409 4.57223 33.6783 4.41777 33.7532C4.26331 33.8265 4.14084 33.9256 4.05035 34.0504C3.95986 34.1737 3.89433 34.3125 3.85377 34.467C3.81476 34.6214 3.79526 34.7782 3.79526 34.9374V35.4382C3.79526 35.5895 3.8132 35.7237 3.84909 35.8407C3.88497 35.9562 3.93412 36.0537 3.99652 36.1332C4.05893 36.2128 4.12914 36.2729 4.20715 36.3134C4.28672 36.354 4.3694 36.3743 4.45521 36.3743C4.55506 36.3743 4.64399 36.3556 4.722 36.3181C4.80001 36.2791 4.86554 36.2253 4.91858 36.1566C4.97319 36.0864 5.01454 36.0038 5.04262 35.9086C5.0707 35.8134 5.08474 35.7089 5.08474 35.595C5.08474 35.4936 5.07226 35.3961 5.0473 35.3025C5.02234 35.2073 4.98411 35.123 4.93263 35.0497C4.88114 34.9748 4.81639 34.9163 4.73839 34.8742C4.66194 34.8305 4.57067 34.8087 4.46457 34.8087C4.34444 34.8087 4.23211 34.8383 4.12758 34.8976C4.02461 34.9553 3.93958 35.0318 3.87249 35.1269C3.80696 35.2205 3.76952 35.3227 3.76016 35.4335L3.53081 35.4312C3.55265 35.2564 3.59322 35.1074 3.65251 34.9842C3.71335 34.8594 3.78824 34.758 3.87717 34.6799C3.96766 34.6004 4.06829 34.5427 4.17906 34.5068C4.2914 34.4693 4.40997 34.4506 4.53478 34.4506C4.70484 34.4506 4.8515 34.4826 4.97475 34.5466C5.098 34.6105 5.19942 34.6963 5.27898 34.804C5.35855 34.9101 5.41706 35.0302 5.4545 35.1644C5.49351 35.297 5.51301 35.4335 5.51301 35.5739C5.51301 35.7346 5.49039 35.8852 5.44514 36.0256C5.3999 36.166 5.33203 36.2893 5.24154 36.3954C5.15261 36.5014 5.04262 36.5841 4.91156 36.6434C4.78051 36.7027 4.62839 36.7324 4.45521 36.7324C4.27111 36.7324 4.11042 36.6949 3.97312 36.62C3.83583 36.5436 3.72193 36.4422 3.63144 36.3158C3.54095 36.1894 3.47309 36.049 3.42784 35.8945C3.3826 35.7401 3.35997 35.5833 3.35997 35.4241V35.2205C3.35997 34.9803 3.38416 34.7447 3.43252 34.5138C3.48089 34.2829 3.56436 34.0738 3.68293 33.8866C3.80306 33.6994 3.96922 33.5504 4.1814 33.4396C4.39359 33.3288 4.66428 33.2735 4.99347 33.2735ZM6.57549 35.0637L6.22913 34.9748L6.39997 33.2781H8.14814V33.6783H6.76739L6.66442 34.6051C6.72682 34.5692 6.80561 34.5356 6.90078 34.5044C6.99751 34.4732 7.10829 34.4576 7.2331 34.4576C7.39068 34.4576 7.53187 34.4849 7.65669 34.5395C7.7815 34.5926 7.88759 34.669 7.97496 34.7689C8.06389 34.8687 8.13176 34.9889 8.17856 35.1293C8.22537 35.2697 8.24877 35.4265 8.24877 35.5997C8.24877 35.7635 8.22615 35.914 8.1809 36.0513C8.13722 36.1886 8.07091 36.3088 7.98198 36.4117C7.89305 36.5131 7.78072 36.5919 7.64498 36.6481C7.51081 36.7043 7.35245 36.7324 7.16991 36.7324C7.03262 36.7324 6.90234 36.7136 6.77909 36.6762C6.6574 36.6372 6.54818 36.5787 6.45145 36.5007C6.35628 36.4211 6.27827 36.3228 6.21743 36.2058C6.15814 36.0872 6.1207 35.9484 6.1051 35.7892H6.51698C6.5357 35.9172 6.57315 36.0248 6.62931 36.1122C6.68548 36.1996 6.75881 36.2659 6.8493 36.3111C6.94135 36.3548 7.04822 36.3766 7.16991 36.3766C7.27288 36.3766 7.36415 36.3587 7.44372 36.3228C7.52329 36.2869 7.59038 36.2354 7.64498 36.1684C7.69959 36.1013 7.74094 36.0201 7.76902 35.925C7.79866 35.8298 7.81348 35.7229 7.81348 35.6043C7.81348 35.4967 7.79866 35.3968 7.76902 35.3048C7.73937 35.2127 7.69491 35.1324 7.63562 35.0637C7.5779 34.9951 7.50691 34.9421 7.42266 34.9046C7.33841 34.8656 7.24168 34.8461 7.13247 34.8461C6.98737 34.8461 6.87738 34.8656 6.80249 34.9046C6.72916 34.9436 6.6535 34.9967 6.57549 35.0637ZM10.9588 34.8578V35.265H8.62321V34.8578H10.9588ZM10.0086 33.8632V36.3439H9.5757V33.8632H10.0086Z" fill="#8794BA"/>
</svg>
