<svg width="194" height="110" viewBox="0 0 194 110" fill="none" xmlns="http://www.w3.org/2000/svg">
<rect x="17.3159" y="0.919556" width="0.399404" height="108.238" fill="#EEEEF7"/>
<rect x="42.4785" y="0.919556" width="0.399404" height="108.238" fill="#EEEEF7"/>
<rect x="67.6411" y="0.919556" width="0.399404" height="108.238" fill="#EEEEF7"/>
<rect x="92.8032" y="0.919556" width="0.399404" height="108.238" fill="#EEEEF7"/>
<rect x="117.966" y="0.919556" width="0.399404" height="108.238" fill="#EEEEF7"/>
<rect x="143.128" y="0.919556" width="0.399404" height="108.238" fill="#EEEEF7"/>
<rect x="168.291" y="0.919556" width="0.399404" height="108.238" fill="#EEEEF7"/>
<rect x="193.453" y="0.919556" width="0.399404" height="108.238" fill="#EEEEF7"/>
<path d="M1.64484 9.0906L1.29848 9.00167L1.46932 7.30499H3.21749V7.70517H1.83674L1.73377 8.63191C1.79617 8.59603 1.87496 8.56249 1.97013 8.53128C2.06686 8.50008 2.17763 8.48448 2.30245 8.48448C2.46003 8.48448 2.60122 8.51178 2.72604 8.56639C2.85085 8.61943 2.95694 8.69588 3.04431 8.79573C3.13324 8.89558 3.20111 9.01572 3.24791 9.15613C3.29472 9.29655 3.31812 9.45334 3.31812 9.62652C3.31812 9.79034 3.2955 9.9409 3.25025 10.0782C3.20657 10.2155 3.14026 10.3356 3.05133 10.4386C2.9624 10.54 2.85007 10.6188 2.71433 10.675C2.58016 10.7311 2.4218 10.7592 2.23926 10.7592C2.10197 10.7592 1.97169 10.7405 1.84844 10.703C1.72675 10.664 1.61753 10.6055 1.5208 10.5275C1.42563 10.448 1.34762 10.3497 1.28678 10.2326C1.22749 10.1141 1.19005 9.97522 1.17444 9.81608H1.58633C1.60505 9.94402 1.6425 10.0517 1.69866 10.139C1.75483 10.2264 1.82816 10.2927 1.91865 10.338C2.0107 10.3816 2.11757 10.4035 2.23926 10.4035C2.34223 10.4035 2.4335 10.3855 2.51307 10.3497C2.59264 10.3138 2.65973 10.2623 2.71433 10.1952C2.76894 10.1281 2.81028 10.047 2.83837 9.95182C2.86801 9.85665 2.88283 9.74978 2.88283 9.6312C2.88283 9.52355 2.86801 9.4237 2.83837 9.33165C2.80872 9.2396 2.76426 9.15925 2.70497 9.0906C2.64725 9.02196 2.57626 8.96891 2.49201 8.93147C2.40776 8.89246 2.31103 8.87296 2.20182 8.87296C2.05672 8.87296 1.94673 8.89246 1.87184 8.93147C1.79851 8.97047 1.72284 9.02352 1.64484 9.0906ZM6.09601 9.56568V9.9214H3.63405V9.66631L5.1599 7.30499H5.51328L5.13416 7.98834L4.12551 9.56568H6.09601ZM5.62093 7.30499V10.7124H5.18799V7.30499H5.62093ZM7.43697 9.08592V9.44164H6.29493V9.08592H7.43697ZM9.47534 7.30031H9.51278V7.66773H9.47534C9.24599 7.66773 9.05409 7.70517 8.89963 7.78006C8.74518 7.85339 8.6227 7.95246 8.53221 8.07727C8.44172 8.20053 8.3762 8.33938 8.33563 8.49384C8.29663 8.6483 8.27712 8.80509 8.27712 8.96423V9.46505C8.27712 9.61638 8.29507 9.75056 8.33095 9.86757C8.36683 9.98302 8.41598 10.0805 8.47839 10.1601C8.54079 10.2397 8.611 10.2997 8.68901 10.3403C8.76858 10.3809 8.85127 10.4011 8.93708 10.4011C9.03693 10.4011 9.12586 10.3824 9.20387 10.345C9.28188 10.306 9.3474 10.2522 9.40045 10.1835C9.45505 10.1133 9.4964 10.0306 9.52448 9.93544C9.55257 9.84027 9.56661 9.73574 9.56661 9.62184C9.56661 9.52043 9.55413 9.42292 9.52916 9.32931C9.5042 9.23414 9.46598 9.14989 9.41449 9.07656C9.363 9.00167 9.29826 8.94317 9.22025 8.90104C9.1438 8.85736 9.05253 8.83552 8.94644 8.83552C8.82631 8.83552 8.71397 8.86516 8.60944 8.92445C8.50647 8.98217 8.42144 9.05862 8.35435 9.15379C8.28883 9.2474 8.25138 9.34959 8.24202 9.46036L8.01268 9.45802C8.03452 9.28329 8.07508 9.13429 8.13437 9.01104C8.19522 8.88622 8.2701 8.78481 8.35903 8.7068C8.44952 8.62723 8.55015 8.56951 8.66093 8.53362C8.77326 8.49618 8.89183 8.47746 9.01665 8.47746C9.1867 8.47746 9.33336 8.50944 9.45661 8.57341C9.57987 8.63737 9.68128 8.72318 9.76085 8.83084C9.84042 8.93693 9.89892 9.05706 9.93637 9.19124C9.97537 9.32385 9.99487 9.46036 9.99487 9.60078C9.99487 9.76148 9.97225 9.91203 9.92701 10.0524C9.88176 10.1929 9.81389 10.3161 9.7234 10.4222C9.63447 10.5283 9.52448 10.611 9.39343 10.6703C9.26237 10.7296 9.11026 10.7592 8.93708 10.7592C8.75298 10.7592 8.59228 10.7218 8.45498 10.6469C8.31769 10.5704 8.2038 10.469 8.11331 10.3426C8.02282 10.2163 7.95495 10.0759 7.9097 9.9214C7.86446 9.76694 7.84184 9.61014 7.84184 9.451V9.2474C7.84184 9.00713 7.86602 8.77155 7.91439 8.54064C7.96275 8.30974 8.04622 8.10068 8.16479 7.91345C8.28493 7.72623 8.45108 7.57724 8.66327 7.46647C8.87545 7.35569 9.14614 7.30031 9.47534 7.30031ZM11.0574 9.0906L10.711 9.00167L10.8818 7.30499H12.63V7.70517H11.2493L11.1463 8.63191C11.2087 8.59603 11.2875 8.56249 11.3826 8.53128C11.4794 8.50008 11.5901 8.48448 11.715 8.48448C11.8725 8.48448 12.0137 8.51178 12.1385 8.56639C12.2634 8.61943 12.3695 8.69588 12.4568 8.79573C12.5458 8.89558 12.6136 9.01572 12.6604 9.15613C12.7072 9.29655 12.7306 9.45334 12.7306 9.62652C12.7306 9.79034 12.708 9.9409 12.6628 10.0782C12.6191 10.2155 12.5528 10.3356 12.4638 10.4386C12.3749 10.54 12.2626 10.6188 12.1268 10.675C11.9927 10.7311 11.8343 10.7592 11.6518 10.7592C11.5145 10.7592 11.3842 10.7405 11.261 10.703C11.1393 10.664 11.03 10.6055 10.9333 10.5275C10.8381 10.448 10.7601 10.3497 10.6993 10.2326C10.64 10.1141 10.6026 9.97522 10.587 9.81608H10.9988C11.0176 9.94402 11.055 10.0517 11.1112 10.139C11.1673 10.2264 11.2407 10.2927 11.3312 10.338C11.4232 10.3816 11.5301 10.4035 11.6518 10.4035C11.7547 10.4035 11.846 10.3855 11.9256 10.3497C12.0052 10.3138 12.0722 10.2623 12.1268 10.1952C12.1815 10.1281 12.2228 10.047 12.2509 9.95182C12.2805 9.85665 12.2953 9.74978 12.2953 9.6312C12.2953 9.52355 12.2805 9.4237 12.2509 9.33165C12.2212 9.2396 12.1768 9.15925 12.1175 9.0906C12.0598 9.02196 11.9888 8.96891 11.9045 8.93147C11.8203 8.89246 11.7235 8.87296 11.6143 8.87296C11.4692 8.87296 11.3592 8.89246 11.2844 8.93147C11.211 8.97047 11.1354 9.02352 11.0574 9.0906Z" fill="#8794BA"/>
<path d="M3.40003 31.9323V32.288H0.938079V32.0329L2.46393 29.6716H2.81731L2.43818 30.3549L1.42953 31.9323H3.40003ZM2.92496 29.6716V33.079H2.49201V29.6716H2.92496ZM4.34081 31.4572L3.99445 31.3683L4.16529 29.6716H5.91347V30.0717H4.53271L4.42974 30.9985C4.49215 30.9626 4.57094 30.9291 4.66611 30.8979C4.76284 30.8667 4.87361 30.8511 4.99842 30.8511C5.156 30.8511 5.2972 30.8784 5.42201 30.933C5.54683 30.986 5.65292 31.0625 5.74029 31.1623C5.82922 31.2622 5.89708 31.3823 5.94389 31.5227C5.99069 31.6631 6.0141 31.8199 6.0141 31.9931C6.0141 32.1569 5.99147 32.3075 5.94623 32.4448C5.90254 32.5821 5.83624 32.7022 5.74731 32.8052C5.65838 32.9066 5.54604 32.9854 5.41031 33.0415C5.27614 33.0977 5.11778 33.1258 4.93524 33.1258C4.79794 33.1258 4.66767 33.1071 4.54441 33.0696C4.42272 33.0306 4.31351 32.9721 4.21678 32.8941C4.12161 32.8145 4.0436 32.7162 3.98275 32.5992C3.92347 32.4807 3.88602 32.3418 3.87042 32.1827H4.28231C4.30103 32.3106 4.33847 32.4182 4.39464 32.5056C4.4508 32.593 4.52413 32.6593 4.61462 32.7045C4.70667 32.7482 4.81354 32.7701 4.93524 32.7701C5.03821 32.7701 5.12948 32.7521 5.20905 32.7162C5.28862 32.6804 5.3557 32.6289 5.41031 32.5618C5.46492 32.4947 5.50626 32.4136 5.53434 32.3184C5.56399 32.2232 5.57881 32.1164 5.57881 31.9978C5.57881 31.8901 5.56399 31.7903 5.53434 31.6982C5.5047 31.6062 5.46024 31.5258 5.40095 31.4572C5.34322 31.3885 5.27223 31.3355 5.18799 31.298C5.10374 31.259 5.00701 31.2395 4.89779 31.2395C4.7527 31.2395 4.64271 31.259 4.56782 31.298C4.49449 31.337 4.41882 31.3901 4.34081 31.4572ZM7.43697 31.4525V31.8082H6.29493V31.4525H7.43697ZM8.36137 31.4572L8.01502 31.3683L8.18585 29.6716H9.93403V30.0717H8.55328L8.4503 30.9985C8.51271 30.9626 8.5915 30.9291 8.68667 30.8979C8.7834 30.8667 8.89417 30.8511 9.01899 30.8511C9.17656 30.8511 9.31776 30.8784 9.44257 30.933C9.56739 30.986 9.67348 31.0625 9.76085 31.1623C9.84978 31.2622 9.91765 31.3823 9.96445 31.5227C10.0113 31.6631 10.0347 31.8199 10.0347 31.9931C10.0347 32.1569 10.012 32.3075 9.96679 32.4448C9.92311 32.5821 9.8568 32.7022 9.76787 32.8052C9.67894 32.9066 9.56661 32.9854 9.43087 33.0415C9.2967 33.0977 9.13834 33.1258 8.9558 33.1258C8.8185 33.1258 8.68823 33.1071 8.56498 33.0696C8.44328 33.0306 8.33407 32.9721 8.23734 32.8941C8.14217 32.8145 8.06416 32.7162 8.00331 32.5992C7.94403 32.4807 7.90658 32.3418 7.89098 32.1827H8.30287C8.32159 32.3106 8.35903 32.4182 8.4152 32.5056C8.47137 32.593 8.54469 32.6593 8.63518 32.7045C8.72723 32.7482 8.83411 32.7701 8.9558 32.7701C9.05877 32.7701 9.15004 32.7521 9.22961 32.7162C9.30918 32.6804 9.37627 32.6289 9.43087 32.5618C9.48548 32.4947 9.52682 32.4136 9.55491 32.3184C9.58455 32.2232 9.59937 32.1164 9.59937 31.9978C9.59937 31.8901 9.58455 31.7903 9.55491 31.6982C9.52526 31.6062 9.4808 31.5258 9.42151 31.4572C9.36378 31.3885 9.2928 31.3355 9.20855 31.298C9.1243 31.259 9.02757 31.2395 8.91836 31.2395C8.77326 31.2395 8.66327 31.259 8.58838 31.298C8.51505 31.337 8.43938 31.3901 8.36137 31.4572ZM12.8125 31.9323V32.288H10.3506V32.0329L11.8764 29.6716H12.2298L11.8507 30.3549L10.842 31.9323H12.8125ZM12.3375 29.6716V33.079H11.9045V29.6716H12.3375Z" fill="#8794BA"/>
<path d="M1.72909 53.5289H2.038C2.18934 53.5289 2.31415 53.504 2.41244 53.4541C2.51229 53.4026 2.5864 53.3331 2.63477 53.2458C2.68469 53.1568 2.70965 53.057 2.70965 52.9462C2.70965 52.8152 2.68781 52.7052 2.64413 52.6162C2.60044 52.5273 2.53491 52.4602 2.44754 52.415C2.36017 52.3697 2.2494 52.3471 2.11523 52.3471C1.99353 52.3471 1.88588 52.3713 1.79227 52.4197C1.70022 52.4665 1.62767 52.5336 1.57463 52.6209C1.52314 52.7083 1.4974 52.8113 1.4974 52.9298H1.06445C1.06445 52.7567 1.10814 52.5991 1.19551 52.4571C1.28288 52.3151 1.40535 52.202 1.56293 52.1178C1.72206 52.0335 1.90616 51.9914 2.11523 51.9914C2.32117 51.9914 2.50137 52.0281 2.65583 52.1014C2.81028 52.1732 2.93042 52.2808 3.01623 52.4243C3.10204 52.5663 3.14494 52.7434 3.14494 52.9556C3.14494 53.0414 3.12466 53.1334 3.08409 53.2317C3.04509 53.3285 2.98346 53.419 2.89921 53.5032C2.81653 53.5875 2.70887 53.6569 2.57626 53.7115C2.44364 53.7645 2.28451 53.7911 2.09885 53.7911H1.72909V53.5289ZM1.72909 53.8847V53.6249H2.09885C2.31571 53.6249 2.49513 53.6506 2.63711 53.7021C2.77908 53.7536 2.89063 53.8223 2.97176 53.9081C3.05445 53.9939 3.11218 54.0883 3.14494 54.1912C3.17926 54.2927 3.19643 54.3941 3.19643 54.4955C3.19643 54.6546 3.16912 54.7958 3.11452 54.9191C3.06147 55.0423 2.9858 55.1468 2.88751 55.2327C2.79078 55.3185 2.67689 55.3832 2.54584 55.4269C2.41478 55.4706 2.27203 55.4924 2.11757 55.4924C1.96935 55.4924 1.82972 55.4714 1.69866 55.4292C1.56917 55.3871 1.4545 55.3263 1.35464 55.2467C1.25479 55.1656 1.17678 55.0665 1.12062 54.9495C1.06445 54.8309 1.03637 54.696 1.03637 54.5446H1.46932C1.46932 54.6632 1.49506 54.7669 1.54655 54.8559C1.59959 54.9448 1.67448 55.0142 1.77121 55.0642C1.8695 55.1125 1.98495 55.1367 2.11757 55.1367C2.25018 55.1367 2.36408 55.1141 2.45925 55.0688C2.55598 55.022 2.63008 54.9518 2.68157 54.8582C2.73462 54.7646 2.76114 54.6468 2.76114 54.5048C2.76114 54.3629 2.7315 54.2466 2.67221 54.1561C2.61292 54.0641 2.52867 53.9962 2.41946 53.9525C2.31181 53.9073 2.18466 53.8847 2.038 53.8847H1.72909ZM4.34081 53.8238L3.99445 53.7349L4.16529 52.0382H5.91347V52.4384H4.53271L4.42974 53.3651C4.49215 53.3292 4.57094 53.2957 4.66611 53.2645C4.76284 53.2333 4.87361 53.2177 4.99842 53.2177C5.156 53.2177 5.2972 53.245 5.42201 53.2996C5.54683 53.3526 5.65292 53.4291 5.74029 53.5289C5.82922 53.6288 5.89708 53.7489 5.94389 53.8893C5.99069 54.0298 6.0141 54.1866 6.0141 54.3597C6.0141 54.5236 5.99147 54.6741 5.94623 54.8114C5.90254 54.9487 5.83624 55.0688 5.74731 55.1718C5.65838 55.2732 5.54604 55.352 5.41031 55.4082C5.27614 55.4643 5.11778 55.4924 4.93524 55.4924C4.79794 55.4924 4.66767 55.4737 4.54441 55.4363C4.42272 55.3973 4.31351 55.3387 4.21678 55.2607C4.12161 55.1812 4.0436 55.0829 3.98275 54.9659C3.92347 54.8473 3.88602 54.7084 3.87042 54.5493H4.28231C4.30103 54.6772 4.33847 54.7849 4.39464 54.8723C4.4508 54.9596 4.52413 55.0259 4.61462 55.0712C4.70667 55.1149 4.81354 55.1367 4.93524 55.1367C5.03821 55.1367 5.12948 55.1188 5.20905 55.0829C5.28862 55.047 5.3557 54.9955 5.41031 54.9284C5.46492 54.8613 5.50626 54.7802 5.53434 54.685C5.56399 54.5899 5.57881 54.483 5.57881 54.3644C5.57881 54.2568 5.56399 54.1569 5.53434 54.0649C5.5047 53.9728 5.46024 53.8925 5.40095 53.8238C5.34322 53.7552 5.27223 53.7021 5.18799 53.6647C5.10374 53.6257 5.00701 53.6062 4.89779 53.6062C4.7527 53.6062 4.64271 53.6257 4.56782 53.6647C4.49449 53.7037 4.41882 53.7567 4.34081 53.8238ZM7.43697 53.8191V54.1749H6.29493V53.8191H7.43697ZM10.1166 54.2989V54.6546H7.65462V54.3995L9.18046 52.0382H9.53384L9.15472 52.7216L8.14607 54.2989H10.1166ZM9.64149 52.0382V55.4456H9.20855V52.0382H9.64149ZM12.8125 54.2989V54.6546H10.3506V54.3995L11.8764 52.0382H12.2298L11.8507 52.7216L10.842 54.2989H12.8125ZM12.3375 52.0382V55.4456H11.9045V52.0382H12.3375Z" fill="#8794BA"/>
<path d="M3.32982 77.4565V77.8123H1.09956V77.501L2.21586 76.2583C2.35315 76.1054 2.45925 75.9759 2.53413 75.8698C2.61058 75.7622 2.66363 75.6662 2.69327 75.582C2.72447 75.4962 2.74008 75.4088 2.74008 75.3199C2.74008 75.2075 2.71667 75.1061 2.66987 75.0156C2.62462 74.9236 2.55754 74.8503 2.46861 74.7957C2.37968 74.7411 2.27203 74.7138 2.14565 74.7138C1.99431 74.7138 1.86794 74.7434 1.76653 74.8027C1.66668 74.8604 1.59179 74.9415 1.54186 75.0461C1.49194 75.1506 1.46698 75.2707 1.46698 75.4065H1.03403C1.03403 75.2146 1.07615 75.0391 1.1604 74.8799C1.24465 74.7208 1.36947 74.5944 1.53484 74.5008C1.70022 74.4056 1.90382 74.358 2.14565 74.358C2.36095 74.358 2.54506 74.3963 2.69795 74.4727C2.85085 74.5476 2.96786 74.6537 3.04899 74.791C3.13168 74.9267 3.17302 75.0859 3.17302 75.2684C3.17302 75.3682 3.15586 75.4697 3.12154 75.5726C3.08877 75.674 3.04275 75.7755 2.98346 75.8769C2.92574 75.9783 2.85787 76.0781 2.77986 76.1764C2.70341 76.2747 2.6215 76.3714 2.53413 76.4666L1.62143 77.4565H3.32982ZM4.34081 76.1905L3.99445 76.1015L4.16529 74.4048H5.91347V74.805H4.53271L4.42974 75.7318C4.49215 75.6959 4.57094 75.6623 4.66611 75.6311C4.76284 75.5999 4.87361 75.5843 4.99842 75.5843C5.156 75.5843 5.2972 75.6116 5.42201 75.6662C5.54683 75.7193 5.65292 75.7957 5.74029 75.8956C5.82922 75.9954 5.89708 76.1156 5.94389 76.256C5.99069 76.3964 6.0141 76.5532 6.0141 76.7264C6.0141 76.8902 5.99147 77.0408 5.94623 77.178C5.90254 77.3153 5.83624 77.4355 5.74731 77.5384C5.65838 77.6399 5.54604 77.7186 5.41031 77.7748C5.27614 77.831 5.11778 77.8591 4.93524 77.8591C4.79794 77.8591 4.66767 77.8403 4.54441 77.8029C4.42272 77.7639 4.31351 77.7054 4.21678 77.6274C4.12161 77.5478 4.0436 77.4495 3.98275 77.3325C3.92347 77.2139 3.88602 77.0751 3.87042 76.9159H4.28231C4.30103 77.0439 4.33847 77.1515 4.39464 77.2389C4.4508 77.3263 4.52413 77.3926 4.61462 77.4378C4.70667 77.4815 4.81354 77.5033 4.93524 77.5033C5.03821 77.5033 5.12948 77.4854 5.20905 77.4495C5.28862 77.4136 5.3557 77.3621 5.41031 77.2951C5.46492 77.228 5.50626 77.1468 5.53434 77.0517C5.56399 76.9565 5.57881 76.8496 5.57881 76.7311C5.57881 76.6234 5.56399 76.5236 5.53434 76.4315C5.5047 76.3395 5.46024 76.2591 5.40095 76.1905C5.34322 76.1218 5.27223 76.0688 5.18799 76.0313C5.10374 75.9923 5.00701 75.9728 4.89779 75.9728C4.7527 75.9728 4.64271 75.9923 4.56782 76.0313C4.49449 76.0703 4.41882 76.1234 4.34081 76.1905ZM7.43697 76.1858V76.5415H6.29493V76.1858H7.43697ZM8.44562 75.8956H8.75454C8.90587 75.8956 9.03069 75.8706 9.12898 75.8207C9.22883 75.7692 9.30294 75.6998 9.3513 75.6124C9.40123 75.5235 9.42619 75.4236 9.42619 75.3129C9.42619 75.1818 9.40435 75.0718 9.36066 74.9829C9.31698 74.894 9.25145 74.8269 9.16408 74.7816C9.07671 74.7364 8.96594 74.7138 8.83177 74.7138C8.71007 74.7138 8.60242 74.7379 8.50881 74.7863C8.41676 74.8331 8.34421 74.9002 8.29117 74.9876C8.23968 75.0749 8.21394 75.1779 8.21394 75.2965H7.78099C7.78099 75.1233 7.82468 74.9657 7.91204 74.8237C7.99941 74.6818 8.12189 74.5687 8.27947 74.4844C8.4386 74.4002 8.6227 74.358 8.83177 74.358C9.03771 74.358 9.21791 74.3947 9.37237 74.468C9.52682 74.5398 9.64696 74.6474 9.73276 74.791C9.81857 74.933 9.86148 75.11 9.86148 75.3222C9.86148 75.408 9.8412 75.5001 9.80063 75.5984C9.76163 75.6951 9.7 75.7856 9.61575 75.8698C9.53306 75.9541 9.42541 76.0235 9.2928 76.0781C9.16018 76.1312 9.00104 76.1577 8.81538 76.1577H8.44562V75.8956ZM8.44562 76.2513V75.9915H8.81538C9.03225 75.9915 9.21167 76.0173 9.35364 76.0688C9.49562 76.1202 9.60717 76.1889 9.6883 76.2747C9.77099 76.3605 9.82872 76.4549 9.86148 76.5579C9.8958 76.6593 9.91296 76.7607 9.91296 76.8621C9.91296 77.0212 9.88566 77.1624 9.83106 77.2857C9.77801 77.409 9.70234 77.5135 9.60405 77.5993C9.50732 77.6851 9.39343 77.7498 9.26237 77.7935C9.13132 77.8372 8.98856 77.8591 8.83411 77.8591C8.68589 77.8591 8.54625 77.838 8.4152 77.7959C8.28571 77.7537 8.17103 77.6929 8.07118 77.6133C7.97133 77.5322 7.89332 77.4331 7.83716 77.3161C7.78099 77.1975 7.75291 77.0626 7.75291 76.9113H8.18585C8.18585 77.0298 8.2116 77.1336 8.26308 77.2225C8.31613 77.3114 8.39102 77.3809 8.48775 77.4308C8.58604 77.4792 8.70149 77.5033 8.83411 77.5033C8.96672 77.5033 9.08061 77.4807 9.17578 77.4355C9.27251 77.3887 9.34662 77.3185 9.39811 77.2249C9.45115 77.1312 9.47768 77.0134 9.47768 76.8715C9.47768 76.7295 9.44803 76.6133 9.38875 76.5228C9.32946 76.4307 9.24521 76.3629 9.136 76.3192C9.02835 76.2739 8.90119 76.2513 8.75454 76.2513H8.44562ZM12.8125 76.6655V77.0212H10.3506V76.7662L11.8764 74.4048H12.2298L11.8507 75.0882L10.842 76.6655H12.8125ZM12.3375 74.4048V77.8123H11.9045V74.4048H12.3375Z" fill="#8794BA"/>
<path d="M2.52009 96.7527V100.179H2.08714V97.2933L1.21423 97.6116V97.2207L2.45222 96.7527H2.52009ZM5.94155 99.2568C5.94155 99.4643 5.89318 99.6406 5.79645 99.7857C5.70128 99.9292 5.57179 100.038 5.40797 100.113C5.24571 100.188 5.06239 100.226 4.85801 100.226C4.65363 100.226 4.46953 100.188 4.30571 100.113C4.14189 100.038 4.0124 99.9292 3.91723 99.7857C3.82206 99.6406 3.77447 99.4643 3.77447 99.2568C3.77447 99.121 3.80021 98.997 3.8517 98.8847C3.90474 98.7708 3.97885 98.6717 4.07402 98.5875C4.17075 98.5032 4.28465 98.4385 4.4157 98.3932C4.54832 98.3464 4.69419 98.323 4.85333 98.323C5.06239 98.323 5.24883 98.3636 5.41265 98.4447C5.57647 98.5243 5.70518 98.6343 5.79879 98.7747C5.89396 98.9151 5.94155 99.0758 5.94155 99.2568ZM5.50626 99.2474C5.50626 99.121 5.47896 99.0095 5.42435 98.9128C5.36975 98.8145 5.2933 98.738 5.19501 98.6834C5.09672 98.6288 4.98282 98.6015 4.85333 98.6015C4.72071 98.6015 4.60604 98.6288 4.50931 98.6834C4.41414 98.738 4.34003 98.8145 4.28699 98.9128C4.23394 99.0095 4.20742 99.121 4.20742 99.2474C4.20742 99.3785 4.23316 99.4908 4.28465 99.5844C4.33769 99.6765 4.41258 99.7474 4.50931 99.7974C4.6076 99.8457 4.72383 99.8699 4.85801 99.8699C4.99218 99.8699 5.10764 99.8457 5.20437 99.7974C5.3011 99.7474 5.37521 99.6765 5.42669 99.5844C5.47974 99.4908 5.50626 99.3785 5.50626 99.2474ZM5.86198 97.6584C5.86198 97.8238 5.81829 97.9728 5.73093 98.1054C5.64356 98.238 5.5242 98.3425 5.37287 98.419C5.22153 98.4954 5.04991 98.5336 4.85801 98.5336C4.66299 98.5336 4.48903 98.4954 4.33613 98.419C4.1848 98.3425 4.06622 98.238 3.98041 98.1054C3.8946 97.9728 3.8517 97.8238 3.8517 97.6584C3.8517 97.4602 3.8946 97.2917 3.98041 97.1529C4.06778 97.014 4.18714 96.9079 4.33847 96.8346C4.48981 96.7613 4.66221 96.7246 4.85567 96.7246C5.05069 96.7246 5.22387 96.7613 5.37521 96.8346C5.52654 96.9079 5.64512 97.014 5.73093 97.1529C5.81829 97.2917 5.86198 97.4602 5.86198 97.6584ZM5.42903 97.6654C5.42903 97.5515 5.40485 97.4509 5.35648 97.3635C5.30812 97.2761 5.24103 97.2075 5.15522 97.1576C5.06941 97.1061 4.96956 97.0803 4.85567 97.0803C4.74178 97.0803 4.64193 97.1045 4.55612 97.1529C4.47187 97.1997 4.40556 97.2668 4.35719 97.3541C4.31039 97.4415 4.28699 97.5453 4.28699 97.6654C4.28699 97.7824 4.31039 97.8846 4.35719 97.972C4.40556 98.0593 4.47265 98.1272 4.55846 98.1756C4.64427 98.2239 4.74412 98.2481 4.85801 98.2481C4.9719 98.2481 5.07097 98.2239 5.15522 98.1756C5.24103 98.1272 5.30812 98.0593 5.35648 97.972C5.40485 97.8846 5.42903 97.7824 5.42903 97.6654ZM7.43697 98.5524V98.9081H6.29493V98.5524H7.43697ZM10.0464 99.8231V100.179H7.81609V99.8676L8.9324 98.6249C9.06969 98.472 9.17578 98.3425 9.25067 98.2364C9.32712 98.1288 9.38017 98.0328 9.40981 97.9486C9.44101 97.8628 9.45661 97.7754 9.45661 97.6865C9.45661 97.5741 9.43321 97.4727 9.38641 97.3822C9.34116 97.2902 9.27407 97.2168 9.18514 97.1622C9.09621 97.1076 8.98856 97.0803 8.86219 97.0803C8.71085 97.0803 8.58448 97.11 8.48307 97.1693C8.38322 97.227 8.30833 97.3081 8.2584 97.4126C8.20848 97.5172 8.18351 97.6373 8.18351 97.773H7.75057C7.75057 97.5811 7.79269 97.4056 7.87694 97.2465C7.96119 97.0874 8.086 96.961 8.25138 96.8674C8.41676 96.7722 8.62036 96.7246 8.86219 96.7246C9.07749 96.7246 9.26159 96.7628 9.41449 96.8393C9.56739 96.9142 9.6844 97.0203 9.76553 97.1576C9.84822 97.2933 9.88956 97.4524 9.88956 97.635C9.88956 97.7348 9.8724 97.8362 9.83808 97.9392C9.80531 98.0406 9.75929 98.142 9.7 98.2434C9.64227 98.3449 9.57441 98.4447 9.4964 98.543C9.41995 98.6413 9.33804 98.738 9.25067 98.8332L8.33797 99.8231H10.0464ZM12.8125 99.0321V99.3878H10.3506V99.1327L11.8764 96.7714H12.2298L11.8507 97.4548L10.842 99.0321H12.8125ZM12.3375 96.7714V100.179H11.9045V96.7714H12.3375Z" fill="#8794BA"/>
<path d="M17.3159 3.71533H119.763C120.976 3.71533 121.96 4.69884 121.96 5.91205C121.96 7.12527 120.976 8.10877 119.763 8.10877H17.3159V3.71533Z" fill="#EF2A82"/>
<path d="M17.3159 26.4814H85.0149C86.2281 26.4814 87.2116 27.465 87.2116 28.6782C87.2116 29.8914 86.2281 30.8749 85.0149 30.8749H17.3159V26.4814Z" fill="#EF2A82"/>
<path d="M17.3159 49.2474H21.5097C22.7229 49.2474 23.7064 50.2309 23.7064 51.4442C23.7064 52.6574 22.7229 53.6409 21.5097 53.6409H17.3159V49.2474Z" fill="#EF2A82"/>
<path d="M17.3159 72.0134H34.2906C35.5038 72.0134 36.4873 72.9969 36.4873 74.2101C36.4873 75.4234 35.5038 76.4069 34.2906 76.4069H17.3159V72.0134Z" fill="#EF2A82"/>
<path d="M17.3159 94.7795H98.1952C99.4084 94.7795 100.392 95.763 100.392 96.9762C100.392 98.1894 99.4084 99.1729 98.1952 99.1729H17.3159V94.7795Z" fill="#EF2A82"/>
<path d="M17.3159 9.30701H74.231C75.4442 9.30701 76.4277 10.2905 76.4277 11.5037C76.4277 12.7169 75.4442 13.7004 74.231 13.7004H17.3159V9.30701Z" fill="#0088F0"/>
<path d="M17.3159 32.073H98.1952C99.4084 32.073 100.392 33.0565 100.392 34.2697C100.392 35.4829 99.4084 36.4664 98.1952 36.4664H17.3159V32.073Z" fill="#0088F0"/>
<path d="M17.3159 54.8391H34.2906C35.5038 54.8391 36.4873 55.8226 36.4873 57.0358C36.4873 58.249 35.5038 59.2325 34.2906 59.2325H17.3159V54.8391Z" fill="#0088F0"/>
<path d="M17.3159 77.6051H150.517C151.73 77.6051 152.714 78.5886 152.714 79.8018C152.714 81.015 151.73 81.9985 150.517 81.9985H17.3159V77.6051Z" fill="#0088F0"/>
<path d="M17.3159 100.371H173.283C174.496 100.371 175.48 101.355 175.48 102.568C175.48 103.781 174.496 104.765 173.283 104.765H17.3159V100.371Z" fill="#0088F0"/>
</svg>
