<svg width="241" height="165" viewBox="0 0 241 165" fill="none" xmlns="http://www.w3.org/2000/svg">
<rect x="0.774902" y="0.64978" width="239.642" height="163.756" rx="11.9821" fill="white"/>
<rect x="25.1396" y="139.243" width="0.399405" height="190.915" transform="rotate(-90 25.1396 139.243)" fill="#EEEEF7"/>
<rect x="25.1387" y="122.867" width="0.399405" height="190.915" transform="rotate(-90 25.1387 122.867)" fill="#EEEEF7"/>
<rect x="25.1387" y="106.492" width="0.399405" height="190.915" transform="rotate(-90 25.1387 106.492)" fill="#EEEEF7"/>
<rect x="25.1387" y="90.1163" width="0.399405" height="190.915" transform="rotate(-90 25.1387 90.1163)" fill="#EEEEF7"/>
<rect x="25.1387" y="73.7407" width="0.399405" height="190.915" transform="rotate(-90 25.1387 73.7407)" fill="#EEEEF7"/>
<rect x="25.1387" y="57.3651" width="0.399405" height="190.915" transform="rotate(-90 25.1387 57.3651)" fill="#EEEEF7"/>
<rect x="25.1387" y="40.9896" width="0.399405" height="190.915" transform="rotate(-90 25.1387 40.9896)" fill="#EEEEF7"/>
<rect x="25.1387" y="24.614" width="0.399405" height="190.915" transform="rotate(-90 25.1387 24.614)" fill="#EEEEF7"/>
<path d="M25.1207 143.613V147.039H24.6877V144.153L23.8148 144.471V144.081L25.0528 143.613H25.1207ZM28.5421 146.117C28.5421 146.324 28.4938 146.5 28.397 146.646C28.3019 146.789 28.1724 146.898 28.0086 146.973C27.8463 147.048 27.663 147.086 27.4586 147.086C27.2542 147.086 27.0701 147.048 26.9063 146.973C26.7425 146.898 26.613 146.789 26.5178 146.646C26.4226 146.5 26.3751 146.324 26.3751 146.117C26.3751 145.981 26.4008 145.857 26.4523 145.745C26.5053 145.631 26.5794 145.532 26.6746 145.447C26.7713 145.363 26.8852 145.298 27.0163 145.253C27.1489 145.206 27.2948 145.183 27.4539 145.183C27.663 145.183 27.8494 145.223 28.0132 145.305C28.1771 145.384 28.3058 145.494 28.3994 145.635C28.4945 145.775 28.5421 145.936 28.5421 146.117ZM28.1068 146.107C28.1068 145.981 28.0795 145.869 28.0249 145.773C27.9703 145.674 27.8939 145.598 27.7956 145.543C27.6973 145.489 27.5834 145.461 27.4539 145.461C27.3213 145.461 27.2066 145.489 27.1099 145.543C27.0147 145.598 26.9406 145.674 26.8876 145.773C26.8345 145.869 26.808 145.981 26.808 146.107C26.808 146.238 26.8337 146.351 26.8852 146.444C26.9383 146.536 27.0132 146.607 27.1099 146.657C27.2082 146.706 27.3244 146.73 27.4586 146.73C27.5928 146.73 27.7082 146.706 27.805 146.657C27.9017 146.607 27.9758 146.536 28.0273 146.444C28.0803 146.351 28.1068 146.238 28.1068 146.107ZM28.4626 144.518C28.4626 144.684 28.4189 144.833 28.3315 144.965C28.2441 145.098 28.1248 145.202 27.9735 145.279C27.8221 145.355 27.6505 145.394 27.4586 145.394C27.2636 145.394 27.0896 145.355 26.9367 145.279C26.7854 145.202 26.6668 145.098 26.581 144.965C26.4952 144.833 26.4523 144.684 26.4523 144.518C26.4523 144.32 26.4952 144.152 26.581 144.013C26.6684 143.874 26.7877 143.768 26.9391 143.695C27.0904 143.621 27.2628 143.585 27.4563 143.585C27.6513 143.585 27.8245 143.621 27.9758 143.695C28.1271 143.768 28.2457 143.874 28.3315 144.013C28.4189 144.152 28.4626 144.32 28.4626 144.518ZM28.0296 144.525C28.0296 144.411 28.0054 144.311 27.9571 144.223C27.9087 144.136 27.8416 144.067 27.7558 144.017C27.67 143.966 27.5701 143.94 27.4563 143.94C27.3424 143.94 27.2425 143.964 27.1567 144.013C27.0725 144.06 27.0061 144.127 26.9578 144.214C26.911 144.301 26.8876 144.405 26.8876 144.525C26.8876 144.642 26.911 144.745 26.9578 144.832C27.0061 144.919 27.0732 144.987 27.159 145.035C27.2449 145.084 27.3447 145.108 27.4586 145.108C27.5725 145.108 27.6716 145.084 27.7558 145.035C27.8416 144.987 27.9087 144.919 27.9571 144.832C28.0054 144.745 28.0296 144.642 28.0296 144.525ZM30.0376 145.412V145.768H28.8955V145.412H30.0376ZM32.6469 146.683V147.039H30.4167V146.728L31.533 145.485C31.6703 145.332 31.7764 145.202 31.8513 145.096C31.9277 144.989 31.9808 144.893 32.0104 144.808C32.0416 144.723 32.0572 144.635 32.0572 144.546C32.0572 144.434 32.0338 144.333 31.987 144.242C31.9417 144.15 31.8747 144.077 31.7857 144.022C31.6968 143.968 31.5891 143.94 31.4628 143.94C31.3114 143.94 31.1851 143.97 31.0837 144.029C30.9838 144.087 30.9089 144.168 30.859 144.273C30.8091 144.377 30.7841 144.497 30.7841 144.633H30.3512C30.3512 144.441 30.3933 144.266 30.4775 144.106C30.5618 143.947 30.6866 143.821 30.852 143.727C31.0173 143.632 31.2209 143.585 31.4628 143.585C31.6781 143.585 31.8622 143.623 32.0151 143.699C32.168 143.774 32.285 143.88 32.3661 144.017C32.4488 144.153 32.4901 144.312 32.4901 144.495C32.4901 144.595 32.473 144.696 32.4387 144.799C32.4059 144.901 32.3599 145.002 32.3006 145.103C32.2429 145.205 32.175 145.305 32.097 145.403C32.0205 145.501 31.9386 145.598 31.8513 145.693L30.9386 146.683H32.6469ZM35.4131 145.892V146.248H32.9512V145.993L34.477 143.631H34.8304L34.4513 144.315L33.4426 145.892H35.4131ZM34.9381 143.631V147.039H34.5051V143.631H34.9381Z" fill="#8794BA"/>
<path d="M115.394 145.122H115.703C115.854 145.122 115.979 145.097 116.077 145.047C116.177 144.996 116.251 144.926 116.299 144.839C116.349 144.75 116.374 144.65 116.374 144.539C116.374 144.408 116.352 144.298 116.309 144.209C116.265 144.12 116.199 144.053 116.112 144.008C116.025 143.963 115.914 143.94 115.78 143.94C115.658 143.94 115.55 143.964 115.457 144.013C115.365 144.06 115.292 144.127 115.239 144.214C115.188 144.301 115.162 144.404 115.162 144.523H114.729C114.729 144.35 114.773 144.192 114.86 144.05C114.947 143.908 115.07 143.795 115.227 143.711C115.387 143.627 115.571 143.585 115.78 143.585C115.986 143.585 116.166 143.621 116.32 143.695C116.475 143.766 116.595 143.874 116.681 144.017C116.767 144.159 116.809 144.337 116.809 144.549C116.809 144.635 116.789 144.727 116.749 144.825C116.71 144.922 116.648 145.012 116.564 145.096C116.481 145.181 116.373 145.25 116.241 145.305C116.108 145.358 115.949 145.384 115.763 145.384H115.394V145.122ZM115.394 145.478V145.218H115.763C115.98 145.218 116.16 145.244 116.302 145.295C116.444 145.347 116.555 145.415 116.636 145.501C116.719 145.587 116.777 145.681 116.809 145.784C116.844 145.886 116.861 145.987 116.861 146.089C116.861 146.248 116.834 146.389 116.779 146.512C116.726 146.635 116.65 146.74 116.552 146.826C116.455 146.912 116.341 146.976 116.21 147.02C116.079 147.064 115.937 147.086 115.782 147.086C115.634 147.086 115.494 147.065 115.363 147.022C115.234 146.98 115.119 146.919 115.019 146.84C114.919 146.759 114.841 146.66 114.785 146.543C114.729 146.424 114.701 146.289 114.701 146.138H115.134C115.134 146.256 115.16 146.36 115.211 146.449C115.264 146.538 115.339 146.607 115.436 146.657C115.534 146.706 115.65 146.73 115.782 146.73C115.915 146.73 116.029 146.707 116.124 146.662C116.221 146.615 116.295 146.545 116.346 146.451C116.399 146.358 116.426 146.24 116.426 146.098C116.426 145.956 116.396 145.84 116.337 145.749C116.277 145.657 116.193 145.589 116.084 145.546C115.976 145.5 115.849 145.478 115.703 145.478H115.394ZM118.005 145.417L117.659 145.328L117.83 143.631H119.578V144.032H118.197L118.094 144.958C118.157 144.922 118.235 144.889 118.331 144.858C118.427 144.826 118.538 144.811 118.663 144.811C118.821 144.811 118.962 144.838 119.087 144.893C119.211 144.946 119.317 145.022 119.405 145.122C119.494 145.222 119.562 145.342 119.608 145.482C119.655 145.623 119.679 145.78 119.679 145.953C119.679 146.117 119.656 146.267 119.611 146.405C119.567 146.542 119.501 146.662 119.412 146.765C119.323 146.866 119.211 146.945 119.075 147.001C118.941 147.057 118.782 147.086 118.6 147.086C118.462 147.086 118.332 147.067 118.209 147.029C118.087 146.99 117.978 146.932 117.881 146.854C117.786 146.774 117.708 146.676 117.647 146.559C117.588 146.44 117.551 146.302 117.535 146.142H117.947C117.966 146.27 118.003 146.378 118.059 146.465C118.115 146.553 118.189 146.619 118.279 146.664C118.371 146.708 118.478 146.73 118.6 146.73C118.703 146.73 118.794 146.712 118.874 146.676C118.953 146.64 119.02 146.589 119.075 146.522C119.129 146.454 119.171 146.373 119.199 146.278C119.229 146.183 119.243 146.076 119.243 145.958C119.243 145.85 119.229 145.75 119.199 145.658C119.169 145.566 119.125 145.486 119.065 145.417C119.008 145.348 118.937 145.295 118.853 145.258C118.768 145.219 118.672 145.199 118.562 145.199C118.417 145.199 118.307 145.219 118.232 145.258C118.159 145.297 118.083 145.35 118.005 145.417ZM121.102 145.412V145.768H119.959V145.412H121.102ZM123.781 145.892V146.248H121.319V145.993L122.845 143.631H123.198L122.819 144.315L121.811 145.892H123.781ZM123.306 143.631V147.039H122.873V143.631H123.306ZM126.477 145.892V146.248H124.015V145.993L125.541 143.631H125.894L125.515 144.315L124.507 145.892H126.477ZM126.002 143.631V147.039H125.569V143.631H126.002Z" fill="#8794BA"/>
<path d="M209.887 143.627H209.924V143.994H209.887C209.658 143.994 209.466 144.032 209.311 144.106C209.157 144.18 209.034 144.279 208.944 144.404C208.853 144.527 208.788 144.666 208.747 144.82C208.708 144.975 208.689 145.131 208.689 145.291V145.791C208.689 145.943 208.707 146.077 208.743 146.194C208.778 146.309 208.828 146.407 208.89 146.486C208.952 146.566 209.023 146.626 209.101 146.667C209.18 146.707 209.263 146.728 209.349 146.728C209.449 146.728 209.537 146.709 209.615 146.671C209.693 146.632 209.759 146.579 209.812 146.51C209.867 146.44 209.908 146.357 209.936 146.262C209.964 146.167 209.978 146.062 209.978 145.948C209.978 145.847 209.966 145.749 209.941 145.656C209.916 145.56 209.878 145.476 209.826 145.403C209.775 145.328 209.71 145.27 209.632 145.227C209.555 145.184 209.464 145.162 209.358 145.162C209.238 145.162 209.126 145.192 209.021 145.251C208.918 145.309 208.833 145.385 208.766 145.48C208.7 145.574 208.663 145.676 208.654 145.787L208.424 145.784C208.446 145.61 208.487 145.461 208.546 145.337C208.607 145.213 208.682 145.111 208.771 145.033C208.861 144.954 208.962 144.896 209.073 144.86C209.185 144.823 209.303 144.804 209.428 144.804C209.598 144.804 209.745 144.836 209.868 144.9C209.991 144.964 210.093 145.05 210.172 145.157C210.252 145.263 210.311 145.383 210.348 145.518C210.387 145.65 210.406 145.787 210.406 145.927C210.406 146.088 210.384 146.238 210.339 146.379C210.293 146.519 210.225 146.642 210.135 146.749C210.046 146.855 209.936 146.937 209.805 146.997C209.674 147.056 209.522 147.086 209.349 147.086C209.165 147.086 209.004 147.048 208.867 146.973C208.729 146.897 208.615 146.795 208.525 146.669C208.434 146.543 208.367 146.402 208.321 146.248C208.276 146.093 208.253 145.936 208.253 145.777V145.574C208.253 145.333 208.278 145.098 208.326 144.867C208.374 144.636 208.458 144.427 208.576 144.24C208.697 144.053 208.863 143.904 209.075 143.793C209.287 143.682 209.558 143.627 209.887 143.627ZM211.469 145.417L211.123 145.328L211.293 143.631H213.042V144.032H211.661L211.558 144.958C211.62 144.922 211.699 144.889 211.794 144.858C211.891 144.826 212.002 144.811 212.127 144.811C212.284 144.811 212.425 144.838 212.55 144.893C212.675 144.946 212.781 145.022 212.868 145.122C212.957 145.222 213.025 145.342 213.072 145.482C213.119 145.623 213.142 145.78 213.142 145.953C213.142 146.117 213.12 146.267 213.074 146.405C213.031 146.542 212.964 146.662 212.875 146.765C212.786 146.866 212.674 146.945 212.538 147.001C212.404 147.057 212.246 147.086 212.063 147.086C211.926 147.086 211.796 147.067 211.673 147.029C211.551 146.99 211.442 146.932 211.345 146.854C211.25 146.774 211.172 146.676 211.111 146.559C211.052 146.44 211.014 146.302 210.999 146.142H211.41C211.429 146.27 211.467 146.378 211.523 146.465C211.579 146.553 211.652 146.619 211.743 146.664C211.835 146.708 211.942 146.73 212.063 146.73C212.166 146.73 212.258 146.712 212.337 146.676C212.417 146.64 212.484 146.589 212.538 146.522C212.593 146.454 212.634 146.373 212.662 146.278C212.692 146.183 212.707 146.076 212.707 145.958C212.707 145.85 212.692 145.75 212.662 145.658C212.633 145.566 212.588 145.486 212.529 145.417C212.471 145.348 212.4 145.295 212.316 145.258C212.232 145.219 212.135 145.199 212.026 145.199C211.881 145.199 211.771 145.219 211.696 145.258C211.623 145.297 211.547 145.35 211.469 145.417ZM215.852 145.211V145.618H213.517V145.211H215.852ZM214.902 144.216V146.697H214.469V144.216H214.902Z" fill="#8794BA"/>
<path opacity="0.1" d="M145.718 80.5305L173.272 83.9255L194.863 68.1865L216.453 47.1803V138.843H25.1387V129.076L42.0491 118.808L59.9592 109.074L89.0615 114.797L118.164 115.302L145.718 80.5305Z" fill="#EF2A82"/>
<path d="M216.653 47.1803L194.863 67.1505L173.272 83.5261L145.718 80.5305L118.164 115.402L89.0615 114.895L59.9592 109.138L42.0491 118.929L25.1387 129.258" stroke="#EF2A82" stroke-width="1.59762"/>
<path d="M216.653 37.5946L194.863 40.1907L173.272 70.7451L145.718 63.7556L118.164 97.9046L89.0614 106.292L59.9592 95.1088L42.0491 91.9695L25.3384 115.878" stroke="#0088F0" stroke-width="1.59762"/>
</svg>
