<svg width="240" height="165" viewBox="0 0 240 165" fill="none" xmlns="http://www.w3.org/2000/svg">
<rect x="0.351562" y="0.64978" width="239.642" height="163.756" rx="11.9821" fill="white"/>
<rect x="24.7158" y="139.243" width="0.399405" height="190.915" transform="rotate(-90 24.7158 139.243)" fill="#EEEEF7"/>
<rect x="24.7153" y="122.867" width="0.399405" height="190.915" transform="rotate(-90 24.7153 122.867)" fill="#EEEEF7"/>
<rect x="24.7153" y="106.492" width="0.399405" height="190.915" transform="rotate(-90 24.7153 106.492)" fill="#EEEEF7"/>
<rect x="24.7153" y="90.1163" width="0.399405" height="190.915" transform="rotate(-90 24.7153 90.1163)" fill="#EEEEF7"/>
<rect x="24.7153" y="73.7407" width="0.399405" height="190.915" transform="rotate(-90 24.7153 73.7407)" fill="#EEEEF7"/>
<rect x="24.7153" y="57.3651" width="0.399405" height="190.915" transform="rotate(-90 24.7153 57.3651)" fill="#EEEEF7"/>
<rect x="24.7153" y="40.9896" width="0.399405" height="190.915" transform="rotate(-90 24.7153 40.9896)" fill="#EEEEF7"/>
<rect x="24.7153" y="24.614" width="0.399405" height="190.915" transform="rotate(-90 24.7153 24.614)" fill="#EEEEF7"/>
<path d="M57.4663 138.844L57.4663 77.9344C57.4663 74.0742 60.5956 70.9448 64.4559 70.9448C68.3161 70.9448 71.4454 74.0742 71.4454 77.9344L71.4454 138.844L57.4663 138.844Z" fill="#EF2A82"/>
<path d="M107.792 138.844L107.792 118.274C107.792 114.414 110.921 111.285 114.781 111.285C118.641 111.285 121.771 114.414 121.771 118.274L121.771 138.844L107.792 138.844Z" fill="#EF2A82"/>
<path d="M158.116 138.844L158.116 88.7183C158.116 84.8581 161.246 81.7287 165.106 81.7287C168.966 81.7287 172.095 84.8581 172.095 88.7183L172.095 138.844L158.116 138.844Z" fill="#EF2A82"/>
<path d="M75.4399 138.844L75.4399 103.097C75.4399 99.2366 78.5693 96.1073 82.4295 96.1073C86.2897 96.1073 89.4191 99.2366 89.4191 103.097L89.4191 138.844L75.4399 138.844Z" fill="#0088F0"/>
<path d="M125.765 138.844L125.765 43.9851C125.765 40.1249 128.894 36.9955 132.754 36.9955C136.614 36.9955 139.744 40.1248 139.744 43.9851L139.744 138.844L125.765 138.844Z" fill="#0088F0"/>
<path d="M176.089 138.844L176.089 136.647C176.089 132.787 179.219 129.657 183.079 129.657C186.939 129.657 190.068 132.787 190.068 136.647L190.068 138.844L176.089 138.844Z" fill="#0088F0"/>
<path d="M69.4307 143.613V147.039H68.9978V144.153L68.1249 144.471V144.081L69.3629 143.613H69.4307ZM72.8522 146.117C72.8522 146.324 72.8038 146.5 72.7071 146.646C72.6119 146.789 72.4824 146.898 72.3186 146.973C72.1564 147.048 71.973 147.086 71.7687 147.086C71.5643 147.086 71.3802 147.048 71.2164 146.973C71.0525 146.898 70.923 146.789 70.8279 146.646C70.7327 146.5 70.6851 146.324 70.6851 146.117C70.6851 145.981 70.7109 145.857 70.7623 145.745C70.8154 145.631 70.8895 145.532 70.9847 145.447C71.0814 145.363 71.1953 145.298 71.3263 145.253C71.459 145.206 71.6048 145.183 71.764 145.183C71.973 145.183 72.1595 145.223 72.3233 145.305C72.4871 145.384 72.6158 145.494 72.7094 145.635C72.8046 145.775 72.8522 145.936 72.8522 146.117ZM72.4169 146.107C72.4169 145.981 72.3896 145.869 72.335 145.773C72.2804 145.674 72.2039 145.598 72.1057 145.543C72.0074 145.489 71.8935 145.461 71.764 145.461C71.6314 145.461 71.5167 145.489 71.42 145.543C71.3248 145.598 71.2507 145.674 71.1976 145.773C71.1446 145.869 71.1181 145.981 71.1181 146.107C71.1181 146.238 71.1438 146.351 71.1953 146.444C71.2483 146.536 71.3232 146.607 71.42 146.657C71.5182 146.706 71.6345 146.73 71.7687 146.73C71.9028 146.73 72.0183 146.706 72.115 146.657C72.2117 146.607 72.2859 146.536 72.3373 146.444C72.3904 146.351 72.4169 146.238 72.4169 146.107ZM72.7726 144.518C72.7726 144.684 72.7289 144.833 72.6416 144.965C72.5542 145.098 72.4348 145.202 72.2835 145.279C72.1322 145.355 71.9606 145.394 71.7687 145.394C71.5736 145.394 71.3997 145.355 71.2468 145.279C71.0954 145.202 70.9769 145.098 70.8911 144.965C70.8052 144.833 70.7623 144.684 70.7623 144.518C70.7623 144.32 70.8052 144.152 70.8911 144.013C70.9784 143.874 71.0978 143.768 71.2491 143.695C71.4005 143.621 71.5729 143.585 71.7663 143.585C71.9613 143.585 72.1345 143.621 72.2859 143.695C72.4372 143.768 72.5558 143.874 72.6416 144.013C72.7289 144.152 72.7726 144.32 72.7726 144.518ZM72.3397 144.525C72.3397 144.411 72.3155 144.311 72.2671 144.223C72.2188 144.136 72.1517 144.067 72.0659 144.017C71.9801 143.966 71.8802 143.94 71.7663 143.94C71.6524 143.94 71.5526 143.964 71.4668 144.013C71.3825 144.06 71.3162 144.127 71.2678 144.214C71.221 144.301 71.1976 144.405 71.1976 144.525C71.1976 144.642 71.221 144.745 71.2678 144.832C71.3162 144.919 71.3833 144.987 71.4691 145.035C71.5549 145.084 71.6548 145.108 71.7687 145.108C71.8825 145.108 71.9816 145.084 72.0659 145.035C72.1517 144.987 72.2188 144.919 72.2671 144.832C72.3155 144.745 72.3397 144.642 72.3397 144.525ZM74.3476 145.412V145.768H73.2056V145.412H74.3476ZM76.957 146.683V147.039H74.7267V146.728L75.843 145.485C75.9803 145.332 76.0864 145.202 76.1613 145.096C76.2378 144.989 76.2908 144.893 76.3205 144.808C76.3517 144.723 76.3673 144.635 76.3673 144.546C76.3673 144.434 76.3439 144.333 76.2971 144.242C76.2518 144.15 76.1847 144.077 76.0958 144.022C76.0069 143.968 75.8992 143.94 75.7728 143.94C75.6215 143.94 75.4951 143.97 75.3937 144.029C75.2939 144.087 75.219 144.168 75.169 144.273C75.1191 144.377 75.0942 144.497 75.0942 144.633H74.6612C74.6612 144.441 74.7033 144.266 74.7876 144.106C74.8718 143.947 74.9966 143.821 75.162 143.727C75.3274 143.632 75.531 143.585 75.7728 143.585C75.9881 143.585 76.1722 143.623 76.3251 143.699C76.478 143.774 76.595 143.88 76.6762 144.017C76.7589 144.153 76.8002 144.312 76.8002 144.495C76.8002 144.595 76.783 144.696 76.7487 144.799C76.716 144.901 76.6699 145.002 76.6106 145.103C76.5529 145.205 76.4851 145.305 76.407 145.403C76.3306 145.501 76.2487 145.598 76.1613 145.693L75.2486 146.683H76.957ZM79.7232 145.892V146.248H77.2612V145.993L78.7871 143.631H79.1405L78.7613 144.315L77.7527 145.892H79.7232ZM79.2481 143.631V147.039H78.8152V143.631H79.2481Z" fill="#8794BA"/>
<path d="M119.364 145.122H119.673C119.824 145.122 119.949 145.097 120.047 145.047C120.147 144.996 120.221 144.926 120.27 144.839C120.319 144.75 120.344 144.65 120.344 144.539C120.344 144.408 120.323 144.298 120.279 144.209C120.235 144.12 120.17 144.053 120.082 144.008C119.995 143.963 119.884 143.94 119.75 143.94C119.628 143.94 119.521 143.964 119.427 144.013C119.335 144.06 119.262 144.127 119.209 144.214C119.158 144.301 119.132 144.404 119.132 144.523H118.699C118.699 144.35 118.743 144.192 118.83 144.05C118.918 143.908 119.04 143.795 119.198 143.711C119.357 143.627 119.541 143.585 119.75 143.585C119.956 143.585 120.136 143.621 120.291 143.695C120.445 143.766 120.565 143.874 120.651 144.017C120.737 144.159 120.78 144.337 120.78 144.549C120.78 144.635 120.759 144.727 120.719 144.825C120.68 144.922 120.618 145.012 120.534 145.096C120.451 145.181 120.344 145.25 120.211 145.305C120.078 145.358 119.919 145.384 119.734 145.384H119.364V145.122ZM119.364 145.478V145.218H119.734C119.95 145.218 120.13 145.244 120.272 145.295C120.414 145.347 120.525 145.415 120.607 145.501C120.689 145.587 120.747 145.681 120.78 145.784C120.814 145.886 120.831 145.987 120.831 146.089C120.831 146.248 120.804 146.389 120.749 146.512C120.696 146.635 120.621 146.74 120.522 146.826C120.426 146.912 120.312 146.976 120.181 147.02C120.05 147.064 119.907 147.086 119.752 147.086C119.604 147.086 119.464 147.065 119.333 147.022C119.204 146.98 119.089 146.919 118.989 146.84C118.89 146.759 118.812 146.66 118.755 146.543C118.699 146.424 118.671 146.289 118.671 146.138H119.104C119.104 146.256 119.13 146.36 119.181 146.449C119.234 146.538 119.309 146.607 119.406 146.657C119.504 146.706 119.62 146.73 119.752 146.73C119.885 146.73 119.999 146.707 120.094 146.662C120.191 146.615 120.265 146.545 120.316 146.451C120.369 146.358 120.396 146.24 120.396 146.098C120.396 145.956 120.366 145.84 120.307 145.749C120.248 145.657 120.163 145.589 120.054 145.546C119.947 145.5 119.819 145.478 119.673 145.478H119.364ZM121.976 145.417L121.629 145.328L121.8 143.631H123.548V144.032H122.167L122.065 144.958C122.127 144.922 122.206 144.889 122.301 144.858C122.398 144.826 122.508 144.811 122.633 144.811C122.791 144.811 122.932 144.838 123.057 144.893C123.182 144.946 123.288 145.022 123.375 145.122C123.464 145.222 123.532 145.342 123.579 145.482C123.625 145.623 123.649 145.78 123.649 145.953C123.649 146.117 123.626 146.267 123.581 146.405C123.537 146.542 123.471 146.662 123.382 146.765C123.293 146.866 123.181 146.945 123.045 147.001C122.911 147.057 122.753 147.086 122.57 147.086C122.433 147.086 122.302 147.067 122.179 147.029C122.057 146.99 121.948 146.932 121.852 146.854C121.756 146.774 121.678 146.676 121.618 146.559C121.558 146.44 121.521 146.302 121.505 146.142H121.917C121.936 146.27 121.973 146.378 122.029 146.465C122.086 146.553 122.159 146.619 122.249 146.664C122.341 146.708 122.448 146.73 122.57 146.73C122.673 146.73 122.764 146.712 122.844 146.676C122.923 146.64 122.99 146.589 123.045 146.522C123.1 146.454 123.141 146.373 123.169 146.278C123.199 146.183 123.214 146.076 123.214 145.958C123.214 145.85 123.199 145.75 123.169 145.658C123.139 145.566 123.095 145.486 123.036 145.417C122.978 145.348 122.907 145.295 122.823 145.258C122.739 145.219 122.642 145.199 122.533 145.199C122.387 145.199 122.277 145.219 122.203 145.258C122.129 145.297 122.054 145.35 121.976 145.417ZM125.072 145.412V145.768H123.93V145.412H125.072ZM127.751 145.892V146.248H125.289V145.993L126.815 143.631H127.169L126.789 144.315L125.781 145.892H127.751ZM127.276 143.631V147.039H126.843V143.631H127.276ZM130.447 145.892V146.248H127.985V145.993L129.511 143.631H129.865L129.485 144.315L128.477 145.892H130.447ZM129.972 143.631V147.039H129.539V143.631H129.972Z" fill="#8794BA"/>
<path d="M171.121 143.627H171.158V143.994H171.121C170.891 143.994 170.7 144.032 170.545 144.106C170.391 144.18 170.268 144.279 170.178 144.404C170.087 144.527 170.022 144.666 169.981 144.82C169.942 144.975 169.923 145.131 169.923 145.291V145.791C169.923 145.943 169.941 146.077 169.976 146.194C170.012 146.309 170.061 146.407 170.124 146.486C170.186 146.566 170.256 146.626 170.334 146.667C170.414 146.707 170.497 146.728 170.583 146.728C170.682 146.728 170.771 146.709 170.849 146.671C170.927 146.632 170.993 146.579 171.046 146.51C171.101 146.44 171.142 146.357 171.17 146.262C171.198 146.167 171.212 146.062 171.212 145.948C171.212 145.847 171.2 145.749 171.175 145.656C171.15 145.56 171.111 145.476 171.06 145.403C171.008 145.328 170.944 145.27 170.866 145.227C170.789 145.184 170.698 145.162 170.592 145.162C170.472 145.162 170.359 145.192 170.255 145.251C170.152 145.309 170.067 145.385 170 145.48C169.934 145.574 169.897 145.676 169.887 145.787L169.658 145.784C169.68 145.61 169.721 145.461 169.78 145.337C169.841 145.213 169.916 145.111 170.005 145.033C170.095 144.954 170.196 144.896 170.306 144.86C170.419 144.823 170.537 144.804 170.662 144.804C170.832 144.804 170.979 144.836 171.102 144.9C171.225 144.964 171.327 145.05 171.406 145.157C171.486 145.263 171.544 145.383 171.582 145.518C171.621 145.65 171.64 145.787 171.64 145.927C171.64 146.088 171.618 146.238 171.572 146.379C171.527 146.519 171.459 146.642 171.369 146.749C171.28 146.855 171.17 146.937 171.039 146.997C170.908 147.056 170.756 147.086 170.583 147.086C170.398 147.086 170.238 147.048 170.1 146.973C169.963 146.897 169.849 146.795 169.759 146.669C169.668 146.543 169.6 146.402 169.555 146.248C169.51 146.093 169.487 145.936 169.487 145.777V145.574C169.487 145.333 169.511 145.098 169.56 144.867C169.608 144.636 169.692 144.427 169.81 144.24C169.93 144.053 170.097 143.904 170.309 143.793C170.521 143.682 170.792 143.627 171.121 143.627ZM172.703 145.417L172.356 145.328L172.527 143.631H174.275V144.032H172.895L172.792 144.958C172.854 144.922 172.933 144.889 173.028 144.858C173.125 144.826 173.236 144.811 173.36 144.811C173.518 144.811 173.659 144.838 173.784 144.893C173.909 144.946 174.015 145.022 174.102 145.122C174.191 145.222 174.259 145.342 174.306 145.482C174.353 145.623 174.376 145.78 174.376 145.953C174.376 146.117 174.353 146.267 174.308 146.405C174.265 146.542 174.198 146.662 174.109 146.765C174.02 146.866 173.908 146.945 173.772 147.001C173.638 147.057 173.48 147.086 173.297 147.086C173.16 147.086 173.03 147.067 172.906 147.029C172.785 146.99 172.676 146.932 172.579 146.854C172.484 146.774 172.406 146.676 172.345 146.559C172.285 146.44 172.248 146.302 172.232 146.142H172.644C172.663 146.27 172.7 146.378 172.757 146.465C172.813 146.553 172.886 146.619 172.977 146.664C173.069 146.708 173.176 146.73 173.297 146.73C173.4 146.73 173.491 146.712 173.571 146.676C173.651 146.64 173.718 146.589 173.772 146.522C173.827 146.454 173.868 146.373 173.896 146.278C173.926 146.183 173.941 146.076 173.941 145.958C173.941 145.85 173.926 145.75 173.896 145.658C173.867 145.566 173.822 145.486 173.763 145.417C173.705 145.348 173.634 145.295 173.55 145.258C173.466 145.219 173.369 145.199 173.26 145.199C173.115 145.199 173.005 145.219 172.93 145.258C172.856 145.297 172.781 145.35 172.703 145.417ZM177.086 145.211V145.618H174.751V145.211H177.086ZM176.136 144.216V146.697H175.703V144.216H176.136Z" fill="#8794BA"/>
</svg>
